<svg aria-hidden="true" style="position: absolute; width: 0; height: 0; overflow: hidden;" version="1.1" xmlns="http://www.w3.org/2000/svg" xmlns:xlink="http://www.w3.org/1999/xlink">
<defs>
<symbol id="icon-trello" viewBox="0 0 28 32">
<path d="M24.519 2h-21.012c-1.938 0-3.506 1.569-3.506 3.5-0.006 0 0-0.25 0 21 0 1.931 1.569 3.5 3.5 3.5h21.012c1.925-0.012 3.481-1.575 3.481-3.5v-21c0.006-1.925-1.55-3.487-3.475-3.5zM12.313 23.206c-0.012 0.919-0.756 1.663-1.681 1.663h-5.169c-0.925 0.006-1.681-0.738-1.688-1.663v-15.887c0-0.925 0.75-1.681 1.681-1.681h5.181c0.925 0 1.681 0.75 1.681 1.681v15.887zM24.381 16.206c0 0.925-0.75 1.681-1.681 1.681h-5.063c-0.925 0-1.681-0.75-1.681-1.681v-8.881c0-0.925 0.75-1.681 1.675-1.681h5.069c0.925 0 1.681 0.75 1.681 1.681v8.881z"></path>
</symbol>
<symbol id="icon-slack" viewBox="0 0 130 32">
<path d="M41.343 25.079l1.614-3.652c1.744 1.268 4.061 1.927 6.352 1.927 1.692 0 2.76-0.634 2.76-1.598-0.026-2.688-10.127-0.583-10.206-7.328-0.026-3.423 3.098-6.061 7.524-6.061 2.63 0 5.259 0.634 7.133 2.079l-1.51 3.728c-1.718-1.065-3.853-1.826-5.884-1.826-1.38 0-2.291 0.634-2.291 1.445 0.026 2.637 10.206 1.192 10.31 7.633 0 3.499-3.046 5.959-7.42 5.959-3.202 0-6.144-0.735-8.383-2.308zM103.279 20.109l4.452 2.409c-1.666 2.916-4.842 4.869-8.513 4.869-5.389 0-9.763-4.26-9.763-9.509s4.374-9.509 9.763-9.509c3.645 0 6.847 1.978 8.513 4.869l-4.452 2.409c-0.807-1.369-2.317-2.308-4.061-2.308-2.578 0-4.66 2.029-4.66 4.539s2.083 4.539 4.66 4.539c1.744 0 3.254-0.938 4.061-2.308zM59.385 0.482h5.571v26.55h-5.571v-26.55zM109.918 0.482h5.572v15.595l6.301-7.329h6.821l-7.784 8.825 8.409 9.459h-7.134l-6.613-7.962v7.962h-5.572v-26.55zM81.514 20.16v-4.488c-0.807-1.319-2.473-2.333-4.348-2.333-2.577 0-4.66 2.029-4.66 4.539s2.083 4.539 4.66 4.539c1.874 0 3.541-0.964 4.348-2.257zM81.514 8.749h5.571v18.258h-5.571v-2.156c-0.911 1.496-3.176 2.536-5.545 2.536-4.894 0-8.748-4.26-8.748-9.535s3.853-9.484 8.748-9.484c2.369 0 4.634 1.040 5.545 2.536v-2.155z"></path>
<path d="M6.899 20.134c0 1.851-1.536 3.347-3.437 3.347s-3.437-1.496-3.437-3.347c0-1.851 1.536-3.347 3.437-3.347h3.437v3.347zM8.617 20.134c0-1.851 1.536-3.347 3.437-3.347s3.437 1.496 3.437 3.347v8.368c0 1.851-1.536 3.347-3.437 3.347s-3.437-1.496-3.437-3.347v-8.368z"></path>
<path d="M12.054 6.695c-1.901 0-3.437-1.496-3.437-3.347s1.536-3.347 3.437-3.347c1.901 0 3.437 1.496 3.437 3.347v3.347h-3.437zM12.054 8.394c1.901 0 3.437 1.496 3.437 3.347s-1.536 3.347-3.437 3.347h-8.617c-1.901 0-3.437-1.496-3.437-3.347s1.536-3.347 3.437-3.347h8.617z"></path>
<path d="M25.826 11.741c0-1.851 1.536-3.347 3.437-3.347s3.437 1.496 3.437 3.347c0 1.851-1.536 3.347-3.437 3.347h-3.437v-3.347zM24.108 11.741c0 1.851-1.536 3.347-3.437 3.347s-3.436-1.496-3.436-3.347v-8.394c0-1.851 1.536-3.347 3.436-3.347s3.437 1.496 3.437 3.347v8.394z"></path>
<path d="M20.671 25.155c1.901 0 3.437 1.496 3.437 3.347s-1.536 3.347-3.437 3.347c-1.9 0-3.436-1.496-3.436-3.347v-3.347h3.436zM20.671 23.482c-1.9 0-3.436-1.496-3.436-3.347s1.536-3.347 3.436-3.347h8.617c1.9 0 3.437 1.496 3.437 3.347s-1.536 3.347-3.437 3.347h-8.617z"></path>
</symbol>
<symbol id="icon-sass" viewBox="0 0 40 32">
<path d="M18.865 23.683c-0.019 0.038-0.038 0.067 0 0zM34.436 18.245c-0.001 0-0.002 0-0.003 0-1.319 0-2.566 0.312-3.67 0.865l0.047-0.021c-0.369-0.744-0.75-1.394-0.813-1.881-0.075-0.569-0.156-0.906-0.069-1.581s0.481-1.631 0.475-1.7-0.087-0.412-0.894-0.419-1.5 0.156-1.581 0.369c-0.127 0.333-0.242 0.733-0.323 1.145l-0.008 0.049c-0.144 0.731-1.612 3.344-2.443 4.706-0.275-0.531-0.506-1-0.556-1.375-0.075-0.569-0.156-0.906-0.069-1.581s0.481-1.631 0.475-1.7-0.087-0.412-0.893-0.419-1.5 0.156-1.581 0.369-0.169 0.713-0.331 1.194-2.118 4.831-2.63 5.962c-0.262 0.575-0.488 1.038-0.65 1.35-0.025 0.050-0.044 0.081-0.056 0.106 0.019-0.031 0.031-0.063 0.031-0.050-0.137 0.269-0.219 0.419-0.219 0.419v0.006c-0.106 0.2-0.225 0.381-0.281 0.381-0.038 0-0.119-0.525 0.019-1.244 0.294-1.512 0.988-3.863 0.981-3.944-0.006-0.044 0.131-0.45-0.456-0.669-0.569-0.206-0.775 0.137-0.825 0.137s-0.087 0.125-0.087 0.125 0.631-2.65-1.212-2.65c-1.15 0-2.75 1.262-3.536 2.406-0.494 0.269-1.563 0.85-2.688 1.469-0.431 0.238-0.875 0.481-1.294 0.712-0.031-0.031-0.056-0.063-0.088-0.094-2.237-2.387-6.367-4.075-6.192-7.281 0.063-1.169 0.469-4.238 7.942-7.963 6.125-3.050 11.022-2.212 11.865-0.35 1.212 2.656-2.618 7.6-8.979 8.313-2.424 0.269-3.699-0.669-4.018-1.019-0.331-0.369-0.381-0.387-0.506-0.319-0.206 0.113-0.075 0.438 0 0.631 0.188 0.494 0.969 1.369 2.299 1.806 1.169 0.381 4.011 0.594 7.448-0.738 3.861-1.488 6.867-5.631 5.986-9.1-0.898-3.525-6.742-4.681-12.269-2.719-3.293 1.169-6.854 3.006-9.416 5.4-3.043 2.85-3.53 5.331-3.33 6.369 0.712 3.681 5.786 6.081 7.816 7.856-0.1 0.056-0.194 0.106-0.281 0.156-1.018 0.506-4.886 2.531-5.854 4.669-1.094 2.425 0.181 4.162 1.018 4.4 2.612 0.725 5.286-0.581 6.723-2.725s1.262-4.944 0.6-6.219c-0.006-0.019-0.019-0.031-0.025-0.050 0.262-0.156 0.531-0.313 0.8-0.469 0.518-0.306 1.024-0.587 1.468-0.831-0.25 0.675-0.431 1.488-0.525 2.663-0.113 1.375 0.456 3.156 1.194 3.856 0.325 0.306 0.718 0.313 0.962 0.313 0.863 0 1.25-0.712 1.681-1.563 0.531-1.038 1-2.244 1-2.244s-0.587 3.262 1.019 3.262c0.587 0 1.174-0.756 1.438-1.144v0.006s0.012-0.025 0.044-0.075c0.063-0.094 0.094-0.15 0.094-0.15v-0.019c0.238-0.406 0.756-1.337 1.537-2.875 1.012-1.988 1.981-4.469 1.981-4.469 0.109 0.631 0.244 1.174 0.412 1.702l-0.025-0.089c0.175 0.594 0.544 1.244 0.837 1.875-0.238 0.325-0.381 0.512-0.381 0.512 0 0.005 0.003 0.009 0.006 0.012v0c-0.188 0.25-0.4 0.519-0.619 0.781-0.799 0.95-1.75 2.038-1.875 2.35-0.15 0.369-0.113 0.644 0.175 0.856 0.212 0.163 0.587 0.188 0.981 0.156 0.719-0.050 1.225-0.225 1.469-0.337 0.482-0.175 0.899-0.399 1.277-0.673l-0.015 0.010c0.781-0.575 1.256-1.4 1.212-2.488-0.025-0.6-0.219-1.2-0.456-1.762 0.069-0.1 0.144-0.206 0.212-0.313 1.237-1.806 2.193-3.789 2.193-3.789 0.109 0.631 0.244 1.174 0.412 1.702l-0.025-0.089c0.15 0.506 0.443 1.063 0.712 1.606-1.162 0.944-1.881 2.038-2.131 2.756-0.462 1.331-0.1 1.931 0.581 2.069 0.306 0.063 0.744-0.081 1.069-0.219 0.515-0.174 0.962-0.409 1.363-0.703l-0.014 0.010c0.781-0.575 1.537-1.381 1.487-2.475-0.019-0.494-0.156-0.988-0.337-1.462 0.981-0.413 2.256-0.637 3.881-0.45 3.48 0.406 4.161 2.581 4.030 3.488s-0.862 1.413-1.106 1.563-0.319 0.206-0.3 0.319c0.031 0.163 0.144 0.156 0.35 0.119 0.288-0.050 1.824-0.738 1.893-2.419 0.1-2.125-1.943-4.462-5.563-4.444zM7.612 27.289c-1.149 1.256-2.762 1.731-3.455 1.331-0.744-0.433-0.45-2.281 0.968-3.62 0.862-0.813 1.974-1.563 2.712-2.025 0.169-0.1 0.413-0.25 0.712-0.431 0.050-0.031 0.075-0.044 0.075-0.044 0.056-0.038 0.119-0.069 0.181-0.106 0.518 1.9 0.019 3.575-1.194 4.894zM16.009 21.576c-0.4 0.981-1.243 3.481-1.756 3.35-0.438-0.113-0.706-2.019-0.088-3.894 0.313-0.944 0.975-2.069 1.369-2.506 0.631-0.706 1.324-0.931 1.487-0.65 0.219 0.369-0.762 3.087-1.012 3.7zM22.947 24.889c-0.169 0.087-0.325 0.144-0.4 0.1-0.056-0.031 0.069-0.15 0.069-0.15s0.869-0.931 1.212-1.356c0.2-0.25 0.431-0.544 0.681-0.869 0 0.031 0.006 0.063 0.006 0.1-0.008 1.119-1.082 1.875-1.57 2.175zM28.296 23.67c-0.125-0.087-0.106-0.381 0.313-1.294 0.163-0.356 0.537-0.956 1.188-1.531 0.070 0.201 0.113 0.432 0.119 0.672l0 0.003c-0.006 1.406-1.012 1.931-1.618 2.15z"></path>
</symbol>
<symbol id="icon-node" viewBox="0 0 40 32">
<path d="M19.769 28.25c-0.131 0-0.262-0.038-0.381-0.1l-1.2-0.712c-0.181-0.1-0.094-0.137-0.031-0.156 0.238-0.081 0.288-0.1 0.544-0.25 0.025-0.012 0.063-0.006 0.087 0.006l0.925 0.55c0.031 0.019 0.081 0.019 0.113 0l3.613-2.087c0.031-0.019 0.056-0.056 0.056-0.1v-4.169c0-0.044-0.019-0.081-0.056-0.1l-3.613-2.081c-0.031-0.019-0.075-0.019-0.113 0l-3.613 2.081c-0.038 0.019-0.056 0.063-0.056 0.1v4.169c0 0.038 0.025 0.075 0.056 0.094l0.988 0.569c0.538 0.269 0.869-0.050 0.869-0.363v-4.119c0-0.056 0.044-0.106 0.106-0.106h0.456c0.056 0 0.106 0.044 0.106 0.106v4.119c0 0.719-0.387 1.125-1.069 1.125-0.206 0-0.375 0-0.831-0.225l-0.95-0.544c-0.231-0.137-0.381-0.387-0.381-0.656v-4.169c0-0.269 0.144-0.525 0.381-0.656l3.613-2.087c0.231-0.131 0.531-0.131 0.756 0l3.613 2.087c0.231 0.137 0.381 0.387 0.381 0.656v4.169c0 0.269-0.144 0.525-0.381 0.656l-3.613 2.087c-0.106 0.069-0.238 0.106-0.375 0.106zM22.688 24.137c0-0.781-0.525-0.988-1.637-1.137-1.125-0.15-1.238-0.225-1.238-0.488 0-0.219 0.094-0.506 0.925-0.506 0.744 0 1.019 0.163 1.131 0.663 0.012 0.050 0.050 0.081 0.1 0.081h0.469c0.031 0 0.056-0.012 0.075-0.031 0.019-0.025 0.031-0.050 0.025-0.081-0.075-0.863-0.644-1.262-1.8-1.262-1.031 0-1.644 0.438-1.644 1.163 0 0.794 0.613 1.006 1.6 1.106 1.181 0.119 1.275 0.288 1.275 0.519 0 0.406-0.325 0.575-1.087 0.575-0.956 0-1.169-0.238-1.238-0.712-0.006-0.050-0.050-0.087-0.106-0.087h-0.469c-0.056 0-0.106 0.044-0.106 0.106 0 0.606 0.331 1.331 1.913 1.331 1.156 0 1.813-0.45 1.813-1.238zM26.094 21.006c0 0.381-0.313 0.694-0.694 0.694s-0.694-0.313-0.694-0.694c0-0.394 0.325-0.694 0.694-0.694 0.375-0.006 0.694 0.3 0.694 0.694zM25.981 21.006c0-0.325-0.262-0.581-0.587-0.581-0.319 0-0.581 0.256-0.581 0.581s0.262 0.587 0.581 0.587c0.325-0.006 0.587-0.269 0.587-0.587zM25.7 21.394h-0.163c-0.006-0.038-0.031-0.238-0.031-0.244-0.012-0.044-0.025-0.069-0.081-0.069h-0.137v0.313h-0.15v-0.781h0.269c0.094 0 0.275 0 0.275 0.206 0 0.144-0.094 0.175-0.15 0.194 0.106 0.006 0.113 0.075 0.131 0.175 0.006 0.063 0.019 0.169 0.038 0.206zM25.525 20.844c0-0.106-0.075-0.106-0.113-0.106h-0.125v0.219h0.119c0.1 0 0.119-0.069 0.119-0.113zM8.581 11.938c0-0.169-0.088-0.319-0.231-0.4l-3.831-2.206c-0.063-0.037-0.138-0.056-0.213-0.063h-0.037c-0.075 0-0.144 0.025-0.213 0.063l-3.825 2.206c-0.144 0.081-0.231 0.238-0.231 0.4l0.006 5.937c0 0.081 0.044 0.156 0.113 0.2s0.156 0.044 0.231 0l2.275-1.306c0.144-0.087 0.231-0.238 0.231-0.4v-2.775c0-0.162 0.087-0.319 0.231-0.4l0.969-0.556c0.075-0.044 0.15-0.063 0.231-0.063s0.162 0.019 0.231 0.063l0.969 0.556c0.144 0.081 0.231 0.238 0.231 0.4v2.775c0 0.163 0.088 0.319 0.231 0.4l2.275 1.306c0.069 0.044 0.162 0.044 0.231 0 0.069-0.038 0.113-0.119 0.113-0.2l0.012-5.938zM29.531 5.456v11.025c0 0.163-0.087 0.319-0.231 0.4l-3.831 2.212c-0.144 0.081-0.319 0.081-0.462 0l-3.831-2.212c-0.144-0.081-0.231-0.238-0.231-0.4v-4.425c0-0.162 0.087-0.319 0.231-0.4l3.831-2.213c0.144-0.081 0.319-0.081 0.462 0l0.956 0.55c0.106 0.063 0.244-0.019 0.244-0.137v-5.875c0-0.175 0.188-0.288 0.344-0.2l2.281 1.275c0.144 0.075 0.238 0.231 0.238 0.4zM26.656 13.512c0-0.044-0.025-0.081-0.056-0.1l-1.313-0.762c-0.038-0.019-0.081-0.019-0.119 0l-1.313 0.762c-0.038 0.019-0.056 0.056-0.056 0.1v1.519c0 0.044 0.025 0.081 0.056 0.1l1.313 0.756c0.038 0.019 0.081 0.019 0.113 0l1.313-0.756c0.038-0.019 0.056-0.056 0.056-0.1v-1.519zM39.769 13.469c0.144-0.081 0.231-0.238 0.231-0.4v-1.069c0-0.162-0.087-0.319-0.231-0.4l-3.806-2.213c-0.144-0.081-0.319-0.081-0.462 0l-3.831 2.213c-0.144 0.081-0.231 0.238-0.231 0.4v4.425c0 0.169 0.087 0.319 0.231 0.4l3.806 2.169c0.138 0.081 0.313 0.081 0.456 0l2.3-1.281c0.156-0.087 0.156-0.313 0-0.4l-3.856-2.213c-0.075-0.044-0.119-0.119-0.119-0.2v-1.387c0-0.081 0.044-0.156 0.119-0.2l1.2-0.694c0.069-0.044 0.163-0.044 0.231 0l1.2 0.694c0.069 0.044 0.119 0.119 0.119 0.2v1.088c0 0.175 0.194 0.287 0.35 0.2l2.294-1.331zM34.938 13.688c-0.025 0.019-0.044 0.044-0.044 0.075v0.85c0 0.031 0.019 0.063 0.044 0.075l0.737 0.425c0.025 0.019 0.063 0.019 0.087 0l0.737-0.425c0.025-0.019 0.044-0.044 0.044-0.075v-0.85c0-0.031-0.019-0.063-0.044-0.075l-0.737-0.425c-0.025-0.019-0.063-0.019-0.087 0l-0.737 0.425zM19.050 16.406v-4.4c0-0.162-0.1-0.319-0.244-0.4l-3.819-2.2c-0.131-0.075-0.313-0.088-0.463 0l-3.819 2.2c-0.144 0.081-0.244 0.231-0.244 0.4v4.4c0 0.175 0.119 0.325 0.25 0.4l3.825 2.2c0.15 0.087 0.325 0.081 0.463 0l3.812-2.2c0.113-0.063 0.194-0.169 0.225-0.294 0.006-0.031 0.012-0.069 0.012-0.106zM14.406 8.6l-0.050 0.031h0.069l-0.019-0.031zM19.169 16.738l-0.025-0.044v0.056l0.025-0.012z"></path>
</symbol>
<symbol id="icon-react" viewBox="0 0 32 32">
<path d="M26.137 11.075c-0.337-0.113-0.675-0.219-1.012-0.319 0.056-0.231 0.106-0.463 0.156-0.694 0.769-3.725 0.262-6.719-1.444-7.706-1.644-0.944-4.325 0.038-7.038 2.4-0.269 0.231-0.531 0.475-0.781 0.719-0.169-0.162-0.344-0.325-0.519-0.481-2.844-2.525-5.694-3.587-7.4-2.594-1.638 0.95-2.125 3.769-1.438 7.294 0.069 0.35 0.144 0.694 0.231 1.044-0.4 0.113-0.794 0.238-1.163 0.369-3.337 1.156-5.731 2.981-5.731 4.869 0 1.95 2.55 3.906 6.019 5.094 0.281 0.094 0.563 0.188 0.85 0.269-0.094 0.375-0.175 0.744-0.25 1.125-0.656 3.469-0.144 6.219 1.494 7.162 1.688 0.975 4.525-0.025 7.287-2.444 0.219-0.194 0.438-0.394 0.656-0.606 0.275 0.269 0.563 0.525 0.85 0.775 2.675 2.3 5.319 3.231 6.95 2.288 1.688-0.975 2.238-3.931 1.525-7.531-0.056-0.275-0.119-0.556-0.188-0.844 0.2-0.056 0.394-0.119 0.587-0.181 3.606-1.194 6.219-3.125 6.219-5.106 0-1.894-2.462-3.731-5.863-4.9zM17.681 5.769c2.325-2.025 4.494-2.819 5.481-2.25 1.056 0.606 1.462 3.056 0.8 6.275-0.044 0.213-0.087 0.419-0.144 0.625-1.387-0.313-2.794-0.537-4.206-0.662-0.813-1.162-1.7-2.275-2.663-3.319 0.244-0.231 0.481-0.45 0.731-0.669zM10.45 19.219c0.319 0.544 0.644 1.087 0.988 1.619-0.975-0.106-1.944-0.262-2.9-0.469 0.275-0.9 0.619-1.831 1.019-2.781 0.287 0.55 0.581 1.094 0.894 1.631zM8.556 11.7c0.9-0.2 1.856-0.363 2.85-0.488-0.331 0.519-0.656 1.050-0.963 1.588-0.306 0.531-0.606 1.075-0.887 1.625-0.394-0.931-0.725-1.844-1-2.725zM10.269 16.006c0.412-0.863 0.863-1.706 1.338-2.537s0.988-1.637 1.525-2.431c0.938-0.069 1.894-0.106 2.869-0.106s1.938 0.037 2.869 0.106c0.531 0.787 1.038 1.594 1.519 2.419s0.931 1.669 1.356 2.525c-0.419 0.862-0.869 1.713-1.35 2.55-0.475 0.831-0.981 1.637-1.512 2.438-0.931 0.069-1.9 0.1-2.881 0.1s-1.931-0.031-2.85-0.087c-0.544-0.794-1.056-1.606-1.537-2.438s-0.925-1.675-1.344-2.538zM21.556 19.206c0.319-0.55 0.619-1.106 0.913-1.669 0.4 0.906 0.75 1.825 1.056 2.769-0.969 0.219-1.95 0.387-2.938 0.5 0.337-0.525 0.656-1.063 0.969-1.6zM22.456 14.425c-0.294-0.55-0.594-1.1-0.906-1.637-0.306-0.531-0.625-1.056-0.956-1.575 1.006 0.125 1.969 0.294 2.869 0.5-0.288 0.925-0.625 1.825-1.006 2.713zM16.012 7.394c0.656 0.712 1.275 1.462 1.85 2.237-1.238-0.056-2.481-0.056-3.719 0 0.613-0.806 1.244-1.556 1.869-2.237zM8.762 3.563c1.050-0.612 3.381 0.263 5.838 2.438 0.156 0.138 0.313 0.287 0.475 0.438-0.969 1.044-1.863 2.156-2.681 3.319-1.412 0.125-2.813 0.344-4.2 0.65-0.081-0.319-0.15-0.644-0.219-0.969-0.588-3.025-0.2-5.306 0.787-5.875zM7.231 20.038c-0.263-0.075-0.519-0.156-0.775-0.244-1.331-0.419-2.844-1.081-3.938-1.95-0.631-0.438-1.056-1.113-1.175-1.869 0-1.144 1.975-2.606 4.825-3.6 0.356-0.125 0.719-0.238 1.081-0.344 0.425 1.356 0.938 2.688 1.531 3.975-0.6 1.306-1.119 2.656-1.55 4.031zM14.519 26.163c-1.031 0.944-2.225 1.694-3.525 2.206-0.694 0.331-1.494 0.363-2.206 0.081-0.994-0.575-1.406-2.781-0.844-5.75 0.069-0.35 0.144-0.7 0.231-1.044 1.4 0.3 2.813 0.506 4.244 0.613 0.825 1.169 1.731 2.288 2.7 3.337-0.2 0.194-0.4 0.381-0.6 0.556zM16.050 24.644c-0.637-0.688-1.275-1.45-1.894-2.269 0.6 0.025 1.219 0.038 1.844 0.038 0.644 0 1.275-0.012 1.9-0.044-0.575 0.794-1.194 1.55-1.85 2.275zM24.219 26.519c-0.056 0.762-0.431 1.475-1.031 1.956-0.994 0.575-3.113-0.175-5.4-2.137-0.262-0.225-0.525-0.469-0.794-0.719 0.956-1.056 1.837-2.175 2.637-3.35 1.431-0.119 2.856-0.337 4.262-0.656 0.063 0.256 0.119 0.512 0.169 0.762 0.306 1.35 0.356 2.756 0.156 4.144zM25.356 19.8c-0.175 0.056-0.35 0.113-0.531 0.163-0.438-1.363-0.975-2.694-1.594-3.988 0.6-1.275 1.106-2.588 1.531-3.931 0.325 0.094 0.637 0.194 0.938 0.294 2.913 1 4.956 2.487 4.956 3.625 0 1.225-2.181 2.806-5.3 3.838zM16 18.863c1.581 0 2.863-1.281 2.863-2.863s-1.281-2.863-2.863-2.863c-1.581 0-2.863 1.281-2.863 2.863s1.281 2.863 2.863 2.863z"></path>
</symbol>
<symbol id="icon-js" viewBox="0 0 28 32">
<path d="M0 2v28h28v-28h-28zM15.238 23.837c0 2.725-1.6 3.969-3.931 3.969-2.106 0-3.325-1.087-3.95-2.406l2.144-1.294c0.412 0.731 0.787 1.35 1.694 1.35 0.863 0 1.412-0.337 1.412-1.656v-8.944h2.631v8.981zM21.462 27.806c-2.444 0-4.025-1.163-4.794-2.688l2.144-1.238c0.563 0.919 1.3 1.6 2.594 1.6 1.087 0 1.788-0.544 1.788-1.3 0-0.9-0.712-1.219-1.919-1.75l-0.656-0.281c-1.9-0.806-3.156-1.825-3.156-3.969 0-1.975 1.506-3.475 3.85-3.475 1.675 0 2.875 0.581 3.738 2.106l-2.050 1.313c-0.45-0.806-0.938-1.125-1.694-1.125-0.769 0-1.256 0.488-1.256 1.125 0 0.788 0.488 1.106 1.619 1.6l0.656 0.281c2.238 0.956 3.494 1.938 3.494 4.137 0 2.363-1.863 3.663-4.356 3.663z"></path>
</symbol>
<symbol id="icon-html-five2" viewBox="0 0 32 32">
<path d="M1.892 0l2.567 28.801 11.524 3.199 11.554-3.204 2.572-28.796h-28.216zM25.336 26.963l-9.288 2.574v0.015l-0.024-0.007-0.024 0.007v-0.015l-9.288-2.574-2.195-24.609h23.015l-2.195 24.609zM20.336 16.569l-0.408 4.58-3.944 1.065-3.933-1.060-0.252-2.82h-3.547l0.495 5.547 7.252 2.006 7.229-2.006 0.97-10.844h-12.874l-0.322-3.617h13.517l0.316-3.532h-17.694l0.953 10.681z"></path>
</symbol>
<symbol id="icon-css3" viewBox="0 0 32 32">
<path d="M4.762 1.516l-1.074 5.373h21.867l-0.684 3.47h-21.881l-1.059 5.372h21.865l-1.219 6.127-8.813 2.919-7.638-2.919 0.523-2.658h-5.372l-1.278 6.448 12.632 4.834 14.563-4.834 4.805-24.133z"></path>
</symbol>
</defs>
</svg>
