<svg aria-hidden="true" style="position: absolute; width: 0; height: 0; overflow: hidden;" version="1.1" xmlns="http://www.w3.org/2000/svg" xmlns:xlink="http://www.w3.org/1999/xlink">
<defs>
<symbol id="icon-email" viewBox="0 0 31 32">
<path fill="#fe390c" style="fill: var(--color1, #fe390c)" d="M21.682 4.755c1.716 0 3.368 0.678 4.582 1.896 1.216 1.215 1.896 2.853 1.896 4.568v10.112c0 3.571-2.906 6.464-6.478 6.464h-12.645c-3.572 0-6.477-2.893-6.477-6.464v-10.112c0-3.571 2.892-6.464 6.477-6.464h12.645zM23.13 11.411c-0.269-0.014-0.525 0.077-0.718 0.256l-5.772 4.608c-0.742 0.616-1.806 0.616-2.56 0l-5.76-4.608c-0.398-0.294-0.948-0.256-1.28 0.090-0.346 0.346-0.384 0.896-0.091 1.28l0.168 0.166 5.824 4.544c0.717 0.563 1.586 0.87 2.496 0.87 0.908 0 1.792-0.307 2.508-0.87l5.774-4.621 0.102-0.102c0.306-0.371 0.306-0.909-0.014-1.28-0.178-0.191-0.422-0.307-0.677-0.333z"></path>
</symbol>
<symbol id="icon-github" viewBox="0 0 32 32">
<path  d="M29.854 8.36c-1.431-2.451-3.371-4.392-5.823-5.823s-5.128-2.146-8.031-2.146c-2.903 0-5.58 0.715-8.031 2.146s-4.392 3.371-5.823 5.823c-1.431 2.451-2.146 5.128-2.146 8.031 0 3.486 1.017 6.621 3.052 9.406s4.663 4.712 7.885 5.781c0.375 0.070 0.653 0.021 0.833-0.146s0.271-0.375 0.271-0.625c0-0.042-0.004-0.416-0.011-1.125s-0.011-1.326-0.011-1.854l-0.479 0.083c-0.306 0.056-0.691 0.080-1.156 0.073s-0.948-0.055-1.448-0.146c-0.5-0.090-0.965-0.298-1.396-0.625s-0.736-0.754-0.916-1.281l-0.208-0.479c-0.139-0.319-0.357-0.674-0.656-1.062s-0.601-0.653-0.906-0.792l-0.146-0.104c-0.097-0.069-0.187-0.153-0.271-0.25s-0.146-0.194-0.187-0.292c-0.042-0.097-0.007-0.177 0.104-0.24s0.312-0.093 0.604-0.093l0.417 0.062c0.278 0.056 0.621 0.222 1.031 0.5s0.746 0.639 1.010 1.083c0.32 0.57 0.705 1.004 1.156 1.302s0.906 0.448 1.364 0.448 0.854-0.035 1.187-0.104c0.333-0.069 0.646-0.174 0.937-0.313 0.125-0.931 0.465-1.646 1.021-2.146-0.792-0.083-1.503-0.208-2.135-0.375s-1.285-0.438-1.958-0.813c-0.674-0.375-1.233-0.84-1.677-1.396s-0.809-1.285-1.094-2.188c-0.285-0.903-0.427-1.944-0.427-3.125 0-1.681 0.549-3.111 1.646-4.292-0.514-1.264-0.465-2.68 0.146-4.25 0.403-0.125 1-0.031 1.792 0.281s1.371 0.58 1.74 0.802c0.368 0.222 0.663 0.41 0.885 0.562 1.292-0.361 2.625-0.541 4-0.541s2.708 0.181 4 0.541l0.792-0.5c0.541-0.333 1.181-0.639 1.916-0.917s1.299-0.354 1.688-0.229c0.625 1.569 0.68 2.986 0.166 4.25 1.097 1.181 1.646 2.611 1.646 4.292 0 1.18-0.143 2.225-0.427 3.135s-0.652 1.639-1.104 2.188c-0.452 0.549-1.014 1.011-1.688 1.385s-1.327 0.646-1.958 0.813c-0.632 0.167-1.344 0.292-2.135 0.375 0.722 0.625 1.083 1.611 1.083 2.958v4.395c0 0.25 0.087 0.458 0.261 0.625s0.448 0.215 0.823 0.146c3.222-1.069 5.851-2.996 7.886-5.781s3.052-5.92 3.052-9.406c-0.001-2.902-0.716-5.579-2.146-8.030z"></path>
</symbol>
<symbol id="icon-group" viewBox="0 0 120 32">
<path d="M22.947 13.655h-10.012c-0.258 0-0.468 0.208-0.468 0.464v4.847c0 0.256 0.21 0.464 0.468 0.464h3.906v6.022c0 0-0.877 0.296-3.302 0.296-2.86 0-6.856-1.035-6.856-9.735 0-8.702 4.161-9.847 8.067-9.847 3.381 0 4.838 0.59 5.765 0.873 0.291 0.088 0.561-0.199 0.561-0.455l1.117-4.683c0-0.12-0.041-0.264-0.179-0.362-0.376-0.266-2.673-1.538-8.475-1.538-6.684 0-13.539 2.816-13.539 16.351s7.849 15.552 14.464 15.552c5.477 0 8.799-2.317 8.799-2.317 0.137-0.075 0.152-0.264 0.152-0.351v-15.116c0-0.256-0.209-0.464-0.468-0.464zM74.515 1.694c0-0.258-0.206-0.466-0.465-0.466h-5.637c-0.257 0-0.467 0.208-0.467 0.466 0 0.001 0.001 10.787 0.001 10.787h-8.787v-10.787c0-0.258-0.207-0.466-0.465-0.466h-5.637c-0.257 0-0.466 0.208-0.466 0.466v29.208c0 0.258 0.209 0.467 0.466 0.467h5.637c0.258 0 0.465-0.21 0.465-0.467v-12.493h8.787c0 0-0.015 12.492-0.015 12.493 0 0.258 0.209 0.467 0.467 0.467h5.651c0.258 0 0.465-0.21 0.465-0.467v-29.208zM33.566 5.599c0-2.010-1.627-3.634-3.635-3.634-2.006 0-3.634 1.624-3.634 3.634 0 2.008 1.629 3.636 3.634 3.636 2.008 0 3.635-1.629 3.635-3.636zM33.119 24.756v-13.482c0-0.256-0.209-0.465-0.466-0.465h-5.619c-0.258 0-0.488 0.263-0.488 0.519v19.316c0 0.568 0.357 0.736 0.82 0.736h5.063c0.555 0 0.692-0.27 0.692-0.746v-5.879zM96.060 10.808h-5.594c-0.257 0-0.465 0.209-0.465 0.467v14.322c0 0-1.421 1.029-3.438 1.029s-2.552-0.906-2.552-2.862v-12.489c0-0.258-0.208-0.467-0.465-0.467h-5.677c-0.256 0-0.466 0.209-0.466 0.467v13.435c0 5.809 3.269 7.23 7.767 7.23 3.69 0 6.665-2.018 6.665-2.018s0.142 1.064 0.206 1.19c0.064 0.126 0.231 0.253 0.412 0.253l3.612-0.016c0.256 0 0.466-0.21 0.466-0.466l-0.002-19.607c0-0.258-0.209-0.467-0.467-0.467zM108.949 26.637c-1.94-0.058-3.256-0.93-3.256-0.93v-9.25c0 0 1.298-0.788 2.891-0.929 2.014-0.179 3.955 0.424 3.955 5.182 0 5.018-0.876 6.008-3.59 5.927zM111.155 10.181c-3.177 0-5.338 1.404-5.338 1.404v-9.89c0-0.258-0.208-0.466-0.465-0.466h-5.653c-0.257 0-0.466 0.208-0.466 0.466v29.208c0 0.258 0.209 0.467 0.467 0.467h3.922c0.177 0 0.31-0.090 0.409-0.248 0.097-0.157 0.238-1.347 0.238-1.347s2.312 2.169 6.688 2.169c5.137 0 8.084-2.58 8.084-11.583s-4.705-10.18-7.885-10.18zM49.343 10.758h-4.229c0 0-0.007-5.53-0.007-5.531 0-0.209-0.109-0.314-0.353-0.314h-5.762c-0.224 0-0.344 0.098-0.344 0.311v5.716c0 0-2.888 0.69-3.083 0.746s-0.338 0.233-0.338 0.445v3.592c0 0.258 0.208 0.467 0.466 0.467h2.954v8.641c0 6.418 4.547 7.049 7.615 7.049 1.402 0 3.079-0.446 3.356-0.547 0.167-0.061 0.265-0.233 0.265-0.419l0.005-3.951c0-0.258-0.22-0.466-0.467-0.466-0.246 0-0.877 0.099-1.526 0.099-2.077 0-2.781-0.956-2.781-2.194 0-1.237-0-8.212-0-8.212h4.229c0.258 0 0.466-0.208 0.466-0.467v-4.499c0-0.258-0.209-0.466-0.466-0.466z"></path>
</symbol>
<symbol id="icon-instagram" viewBox="0 0 32 32">
<path d="M15.581 9.58c-1.592 0-3.12 0.633-4.246 1.759s-1.759 2.653-1.759 4.246c0 1.593 0.633 3.12 1.759 4.246s2.653 1.759 4.246 1.759c1.592 0 3.12-0.633 4.246-1.759s1.759-2.653 1.759-4.246-0.633-3.12-1.759-4.246c-1.126-1.126-2.653-1.759-4.246-1.759zM15.581 19.484c-1.035 0-2.027-0.411-2.758-1.143s-1.143-1.724-1.143-2.758c0-1.035 0.411-2.027 1.143-2.758s1.724-1.143 2.758-1.143c1.035 0 2.027 0.411 2.758 1.143s1.143 1.724 1.143 2.758c0 1.035-0.411 2.027-1.143 2.758s-1.724 1.143-2.758 1.143z"></path>
<path d="M21.823 10.759c0.773 0 1.4-0.627 1.4-1.4s-0.627-1.4-1.4-1.4c-0.773 0-1.4 0.627-1.4 1.4s0.627 1.4 1.4 1.4z"></path>
<path d="M26.663 7.936c-0.301-0.776-0.76-1.481-1.349-2.070s-1.294-1.048-2.070-1.348c-0.909-0.341-1.868-0.525-2.839-0.545-1.25-0.055-1.647-0.070-4.818-0.070s-3.577 0-4.818 0.070c-0.97 0.019-1.929 0.203-2.836 0.545-0.777 0.3-1.482 0.759-2.071 1.348s-1.048 1.294-1.348 2.070c-0.341 0.908-0.525 1.868-0.544 2.839-0.056 1.249-0.073 1.645-0.073 4.818 0 3.171 0 3.575 0.073 4.818 0.019 0.971 0.203 1.93 0.544 2.84 0.301 0.776 0.761 1.481 1.35 2.070s1.294 1.048 2.071 1.348c0.906 0.355 1.865 0.552 2.837 0.584 1.251 0.055 1.647 0.071 4.818 0.071s3.577 0 4.818-0.071c0.97-0.020 1.93-0.204 2.839-0.544 0.776-0.301 1.481-0.761 2.070-1.349s1.048-1.294 1.349-2.070c0.342-0.909 0.525-1.867 0.544-2.839 0.056-1.249 0.073-1.645 0.073-4.818s0-3.575-0.073-4.818c-0.015-0.984-0.2-1.958-0.547-2.879zM25.082 20.313c-0.009 0.748-0.145 1.49-0.404 2.192-0.195 0.505-0.494 0.964-0.876 1.346s-0.842 0.681-1.347 0.876c-0.694 0.258-1.428 0.394-2.169 0.404-1.234 0.057-1.581 0.072-4.745 0.072-3.166 0-3.489 0-4.746-0.072-0.74-0.009-1.473-0.146-2.167-0.404-0.507-0.194-0.967-0.491-1.352-0.874s-0.684-0.842-0.88-1.348c-0.255-0.695-0.392-1.427-0.404-2.167-0.056-1.234-0.069-1.582-0.069-4.745 0-3.165 0-3.488 0.069-4.746 0.008-0.748 0.145-1.489 0.404-2.191 0.396-1.025 1.208-1.831 2.232-2.223 0.694-0.257 1.427-0.394 2.167-0.404 1.235-0.056 1.582-0.071 4.746-0.071s3.489 0 4.745 0.071c0.741 0.009 1.474 0.146 2.169 0.404 0.505 0.195 0.964 0.494 1.347 0.877s0.681 0.842 0.877 1.347c0.255 0.695 0.392 1.427 0.404 2.167 0.056 1.235 0.070 1.582 0.070 4.746 0 3.163 0 3.503-0.056 4.745h-0.014v-0.001z"></path>
</symbol>
<symbol id="icon-left-arrow" viewBox="0 0 32 32">
<path d="M31.106 15h-27.828l8.325-8.293c0.391-0.391 0.391-1.024 0-1.414-0.391-0.391-1.024-0.391-1.414 0l-9.9 9.899c-0.385 0.385-0.385 1.029 0 1.414l9.9 9.9c0.391 0.391 1.024 0.391 1.414 0s0.391-1.024 0-1.414l-8.325-8.092h27.828c0.552 0 1-0.448 1-1s-0.448-1-1-1z"></path>
</symbol>
<symbol id="icon-linkedin" viewBox="0 0 32 32">
<path d="M6.471 9.346c1.569 0 2.841-1.272 2.841-2.841s-1.272-2.841-2.841-2.841c-1.569 0-2.841 1.272-2.841 2.841s1.272 2.841 2.841 2.841z"></path>
<path d="M11.995 11.499v15.763h4.894v-7.795c0-2.057 0.387-4.049 2.937-4.049 2.515 0 2.547 2.352 2.547 4.179v7.667h4.897v-8.644c0-4.246-0.914-7.509-5.877-7.509-2.383 0-3.98 1.308-4.633 2.545h-0.066v-2.156h-4.698zM4.019 11.499h4.902v15.763h-4.902v-15.763z"></path>
</symbol>
<symbol id="icon-phone" viewBox="0 0 31 32">
<path fill="#fe390c" style="fill: var(--color1, #fe390c)" d="M14.761 16.88c5.106 5.104 6.264-0.801 9.515 2.448 3.134 3.133 4.936 3.761 0.965 7.731-0.497 0.4-3.658 5.209-14.764-5.894-11.108-11.105-6.301-14.268-5.902-14.766 3.981-3.981 4.598-2.169 7.732 0.964 3.251 3.25-2.652 4.412 2.454 9.517z"></path>
</symbol>
<symbol id="icon-point" viewBox="0 0 31 32">
<path fill="#fe390c" style="fill: var(--color1, #fe390c)" d="M15.36 2.195c-6.352 0-11.52 5.026-11.52 11.204 0 7.119 4.75 11.414 7.9 14.257 1.002 0.947 2.317 1.42 3.628 1.42 1.309 0 2.615-0.471 3.602-1.41 3.15-2.842 7.91-7.14 7.91-14.266 0-6.178-5.168-11.204-11.52-11.204zM15.36 17.881c-2.541 0-4.608-2.011-4.608-4.482s2.067-4.482 4.608-4.482c2.541 0 4.608 2.011 4.608 4.482s-2.067 4.482-4.608 4.482z"></path>
</symbol>
<symbol id="icon-right-arrow" viewBox="0 0 32 32">
<path d="M32 16.009c0-0.267-0.11-0.522-0.293-0.714l-9.899-9.999c-0.391-0.395-1.024-0.394-1.414 0s-0.391 1.034 0 1.428l8.193 8.275h-27.587c-0.552 0-1 0.452-1 1.010s0.448 1.010 1 1.010h27.586l-8.192 8.275c-0.391 0.394-0.39 1.034 0 1.428 0.391 0.394 1.024 0.394 1.414 0l9.899-9.999c0.187-0.189 0.29-0.449 0.293-0.714z"></path>
</symbol>
<symbol id="icon-service-icon" viewBox="0 0 31 32">
<path d="M14.858 2.698c0.535 0 0.97 0.435 0.97 0.97s-0.434 0.97-0.97 0.97h-4.834c-3.341 0-5.499 2.289-5.499 5.831v10.752c0 3.542 2.158 5.831 5.499 5.831h11.409c3.341 0 5.5-2.289 5.5-5.831v-5.209c0-0.535 0.434-0.97 0.97-0.97s0.97 0.435 0.97 0.97v5.209c0 4.648-2.991 7.771-7.439 7.771h-11.409c-4.449 0-7.438-3.123-7.438-7.771v-10.752c0-4.648 2.989-7.771 7.438-7.771h4.834zM26.119 3.834l1.574 1.574c0.767 0.766 1.188 1.783 1.187 2.867 0 1.084-0.422 2.1-1.187 2.864l-9.709 9.711c-0.712 0.713-1.661 1.106-2.67 1.106h-4.843c-0.261 0-0.512-0.106-0.694-0.294-0.182-0.186-0.282-0.438-0.275-0.701l0.122-4.887c0.025-0.972 0.416-1.887 1.104-2.576h0.001l9.662-9.664c1.58-1.578 4.149-1.578 5.729 0zM19.594 7.372l-7.496 7.498c-0.335 0.335-0.525 0.78-0.537 1.252l-0.097 3.894h3.849c0.491 0 0.952-0.19 1.299-0.538l7.541-7.545-4.56-4.561zM21.761 5.206l-0.796 0.794 4.56 4.562 0.797-0.795c0.398-0.398 0.618-0.929 0.618-1.492 0-0.565-0.22-1.097-0.618-1.495l-1.573-1.574c-0.824-0.821-2.163-0.821-2.988 0z"></path>
</symbol>
<symbol id="icon-vector-btn" viewBox="0 0 32 32">
<path fill="#fe390c" style="fill: var(--color1, #fe390c)" d="M28 22v6h-24v-6h-4v6c0 2.2 1.8 4 4 4h24c2.2 0 4-1.8 4-4v-6h-4zM26 14l-2.82-2.82-5.18 5.16v-16.34h-4v16.34l-5.18-5.16-2.82 2.82 10 10 10-10z"></path>
</symbol>
<symbol id="icon-arrow-left" viewBox="0 0 32 32">
<path stroke-linejoin="round" stroke-linecap="round" stroke-miterlimit="4" stroke-width="2.6667" d="M25.333 16h-18.667"></path>
<path stroke-linejoin="round" stroke-linecap="round" stroke-miterlimit="4" stroke-width="2.6667" d="M15.999 25.333l-9.333-9.333 9.333-9.333"></path>
</symbol>
<symbol id="icon-arrow-right" viewBox="0 0 32 32">
<path stroke-linejoin="round" stroke-linecap="round" stroke-miterlimit="4" stroke-width="2.6667" d="M6.667 16h18.667"></path>
<path stroke-linejoin="round" stroke-linecap="round" stroke-miterlimit="4" stroke-width="2.6667" d="M16.001 25.333l9.333-9.333-9.333-9.333"></path>
</symbol>
<symbol id="icon-close" viewBox="0 0 32 32">
<path d="M17.253 16l7.369-7.369c0.146-0.17 0.222-0.389 0.213-0.613s-0.101-0.436-0.26-0.594c-0.158-0.158-0.371-0.251-0.594-0.26s-0.442 0.067-0.612 0.213l-7.369 7.369-7.369-7.378c-0.167-0.167-0.394-0.261-0.631-0.261s-0.464 0.094-0.631 0.261c-0.167 0.167-0.261 0.394-0.261 0.631s0.094 0.464 0.261 0.631l7.378 7.369-7.378 7.369c-0.093 0.080-0.169 0.178-0.222 0.288s-0.083 0.23-0.088 0.353c-0.005 0.122 0.016 0.244 0.061 0.358s0.112 0.218 0.199 0.304 0.19 0.154 0.304 0.199c0.114 0.045 0.236 0.065 0.359 0.061s0.243-0.035 0.353-0.088 0.208-0.129 0.288-0.222l7.378-7.369 7.369 7.369c0.17 0.146 0.389 0.222 0.612 0.213s0.436-0.101 0.594-0.26c0.158-0.158 0.251-0.371 0.26-0.594s-0.067-0.442-0.213-0.612l-7.369-7.369z"></path>
</symbol>
<symbol id="icon-heart" viewBox="0 0 32 32">
<path fill="#b92f2c" style="fill: var(--color3, #b92f2c)" d="M16 30.583l-2.24-2.24c-8.32-7.36-13.76-12.32-13.76-18.4 0-4.96 3.84-8.8 8.8-8.8 2.72 0 5.44 1.28 7.2 3.36 1.76-2.080 4.48-3.36 7.2-3.36 4.96 0 8.8 3.84 8.8 8.8 0 6.080-5.44 11.040-13.76 18.4l-2.24 2.24z"></path>
</symbol>
<symbol id="icon-logo" viewBox="0 0 32 32">
<path fill="none" stroke="#fff" style="stroke: var(--color2, #fff)" stroke-linejoin="round" stroke-linecap="round" stroke-miterlimit="4" stroke-width="2.1695" d="M26.427 2.667h-20.853c-1.605 0-2.907 1.301-2.907 2.907v20.853c0 1.605 1.301 2.907 2.907 2.907h20.853c1.605 0 2.907-1.301 2.907-2.907v-20.853c0-1.605-1.301-2.907-2.907-2.907z"></path>
<path fill="none" stroke="#fff" style="stroke: var(--color2, #fff)" stroke-linejoin="round" stroke-linecap="round" stroke-miterlimit="4" stroke-width="2.1695" d="M9.333 2.667v26.667"></path>
<path fill="none" stroke="#fff" style="stroke: var(--color2, #fff)" stroke-linejoin="round" stroke-linecap="round" stroke-miterlimit="4" stroke-width="2.1695" d="M22.667 2.667v26.667"></path>
<path fill="none" stroke="#fff" style="stroke: var(--color2, #fff)" stroke-linejoin="round" stroke-linecap="round" stroke-miterlimit="4" stroke-width="2.1695" d="M2.667 16h26.667"></path>
<path fill="none" stroke="#fff" style="stroke: var(--color2, #fff)" stroke-linejoin="round" stroke-linecap="round" stroke-miterlimit="4" stroke-width="2.1695" d="M2.667 9.333h6.667"></path>
<path fill="none" stroke="#fff" style="stroke: var(--color2, #fff)" stroke-linejoin="round" stroke-linecap="round" stroke-miterlimit="4" stroke-width="2.1695" d="M2.667 22.667h6.667"></path>
<path fill="none" stroke="#fff" style="stroke: var(--color2, #fff)" stroke-linejoin="round" stroke-linecap="round" stroke-miterlimit="4" stroke-width="2.1695" d="M22.667 22.667h6.667"></path>
<path fill="none" stroke="#fff" style="stroke: var(--color2, #fff)" stroke-linejoin="round" stroke-linecap="round" stroke-miterlimit="4" stroke-width="2.1695" d="M22.667 9.333h6.667"></path>
</symbol>
<symbol id="icon-search" viewBox="0 0 32 32">
<path stroke-linejoin="round" stroke-linecap="round" stroke-miterlimit="4" stroke-width="2" d="M14.667 25.333c5.891 0 10.667-4.776 10.667-10.667s-4.776-10.667-10.667-10.667c-5.891 0-10.667 4.776-10.667 10.667s4.776 10.667 10.667 10.667z"></path>
<path stroke-linejoin="round" stroke-linecap="round" stroke-miterlimit="4" stroke-width="2" d="M28 28l-5.8-5.8"></path>
</symbol>
<symbol id="icon-group1" viewBox="0 0 32 32">
<path d="M6.119 15.375h-2.67c-0.069 0-0.125 0.055-0.125 0.124v1.293c0 0.068 0.056 0.124 0.125 0.124h1.041v1.606c0 0-0.234 0.079-0.88 0.079-0.763 0-1.828-0.276-1.828-2.596s1.11-2.626 2.151-2.626c0.902 0 1.29 0.157 1.537 0.233 0.078 0.024 0.149-0.053 0.149-0.121l0.298-1.249c0-0.032-0.011-0.070-0.048-0.097-0.1-0.071-0.713-0.41-2.26-0.41-1.782 0-3.61 0.751-3.61 4.36s2.093 4.147 3.857 4.147c1.46 0 2.346-0.618 2.346-0.618 0.037-0.020 0.040-0.070 0.040-0.094v-4.031c0-0.068-0.056-0.124-0.125-0.124zM19.871 12.185c0-0.069-0.055-0.124-0.124-0.124h-1.503c-0.069 0-0.125 0.055-0.125 0.124 0 0 0 2.877 0 2.877h-2.343v-2.877c0-0.069-0.055-0.124-0.124-0.124h-1.503c-0.068 0-0.124 0.055-0.124 0.124v7.789c0 0.069 0.056 0.125 0.124 0.125h1.503c0.069 0 0.124-0.056 0.124-0.125v-3.332h2.343c0 0-0.004 3.331-0.004 3.332 0 0.069 0.056 0.125 0.125 0.125h1.507c0.069 0 0.124-0.056 0.124-0.125v-7.789zM8.951 13.226c0-0.536-0.434-0.969-0.969-0.969s-0.969 0.433-0.969 0.969c0 0.535 0.434 0.97 0.969 0.97s0.969-0.434 0.969-0.97zM8.832 18.335v-3.595c0-0.068-0.056-0.124-0.124-0.124h-1.498c-0.069 0-0.13 0.070-0.13 0.138v5.151c0 0.151 0.095 0.196 0.219 0.196h1.35c0.148 0 0.184-0.072 0.184-0.199v-1.568zM25.616 14.616h-1.492c-0.068 0-0.124 0.056-0.124 0.125v3.819c0 0-0.379 0.275-0.917 0.275s-0.681-0.242-0.681-0.763v-3.331c0-0.069-0.056-0.125-0.124-0.125h-1.514c-0.068 0-0.124 0.056-0.124 0.125v3.583c0 1.549 0.872 1.928 2.071 1.928 0.984 0 1.777-0.538 1.777-0.538s0.038 0.284 0.055 0.317c0.017 0.034 0.062 0.067 0.11 0.067l0.963-0.004c0.068 0 0.124-0.056 0.124-0.124l-0-5.229c0-0.069-0.056-0.125-0.125-0.125zM29.053 18.837c-0.517-0.016-0.868-0.248-0.868-0.248v-2.467c0 0 0.346-0.21 0.771-0.248 0.537-0.048 1.055 0.113 1.055 1.382 0 1.338-0.234 1.602-0.957 1.58zM29.641 14.448c-0.847 0-1.424 0.374-1.424 0.374v-2.637c0-0.069-0.056-0.124-0.124-0.124h-1.507c-0.069 0-0.124 0.055-0.124 0.124v7.789c0 0.069 0.056 0.125 0.124 0.125h1.046c0.047 0 0.083-0.024 0.109-0.066s0.064-0.359 0.064-0.359 0.616 0.578 1.783 0.578c1.37 0 2.156-0.688 2.156-3.089s-1.255-2.715-2.103-2.715zM13.158 14.602h-1.128c0 0-0.002-1.475-0.002-1.475 0-0.056-0.029-0.084-0.094-0.084h-1.537c-0.060 0-0.092 0.026-0.092 0.083v1.524c0 0-0.77 0.184-0.822 0.199s-0.090 0.062-0.090 0.119v0.958c0 0.069 0.056 0.124 0.124 0.124h0.788v2.304c0 1.712 1.213 1.88 2.031 1.88 0.374 0 0.821-0.119 0.895-0.146 0.045-0.016 0.071-0.062 0.071-0.112l0.001-1.054c0-0.069-0.059-0.124-0.125-0.124s-0.234 0.026-0.407 0.026c-0.554 0-0.742-0.255-0.742-0.585s-0-2.19-0-2.19h1.128c0.069 0 0.124-0.056 0.124-0.124v-1.2c0-0.069-0.056-0.124-0.124-0.124z"></path>
</symbol>
<symbol id="icon-instagram1" viewBox="0 0 32 32">
<path d="M15.581 9.58c-1.592 0-3.12 0.633-4.246 1.759s-1.759 2.653-1.759 4.246c0 1.593 0.633 3.12 1.759 4.246s2.653 1.759 4.246 1.759c1.592 0 3.12-0.633 4.246-1.759s1.759-2.653 1.759-4.246-0.633-3.12-1.759-4.246c-1.126-1.126-2.653-1.759-4.246-1.759zM15.581 19.484c-1.035 0-2.027-0.411-2.758-1.143s-1.143-1.724-1.143-2.758c0-1.035 0.411-2.027 1.143-2.758s1.724-1.143 2.758-1.143c1.035 0 2.027 0.411 2.758 1.143s1.143 1.724 1.143 2.758c0 1.035-0.411 2.027-1.143 2.758s-1.724 1.143-2.758 1.143z"></path>
<path d="M21.823 10.759c0.773 0 1.4-0.627 1.4-1.4s-0.627-1.4-1.4-1.4c-0.773 0-1.4 0.627-1.4 1.4s0.627 1.4 1.4 1.4z"></path>
<path d="M26.663 7.936c-0.301-0.776-0.76-1.481-1.349-2.070s-1.294-1.048-2.070-1.348c-0.909-0.341-1.868-0.525-2.839-0.545-1.25-0.055-1.647-0.070-4.818-0.070s-3.577 0-4.818 0.070c-0.97 0.019-1.929 0.203-2.836 0.545-0.777 0.3-1.482 0.759-2.071 1.348s-1.048 1.294-1.348 2.070c-0.341 0.908-0.525 1.868-0.544 2.839-0.056 1.249-0.073 1.645-0.073 4.818 0 3.171 0 3.575 0.073 4.818 0.019 0.971 0.203 1.93 0.544 2.84 0.301 0.776 0.761 1.481 1.35 2.070s1.294 1.048 2.071 1.348c0.906 0.355 1.865 0.552 2.837 0.584 1.251 0.055 1.647 0.071 4.818 0.071s3.577 0 4.818-0.071c0.97-0.020 1.93-0.204 2.839-0.544 0.776-0.301 1.481-0.761 2.070-1.349s1.048-1.294 1.349-2.070c0.342-0.909 0.525-1.867 0.544-2.839 0.056-1.249 0.073-1.645 0.073-4.818s0-3.575-0.073-4.818c-0.015-0.984-0.2-1.958-0.547-2.879zM25.082 20.313c-0.009 0.748-0.145 1.49-0.404 2.192-0.195 0.505-0.494 0.964-0.876 1.346s-0.842 0.681-1.347 0.876c-0.694 0.258-1.428 0.394-2.169 0.404-1.234 0.057-1.581 0.072-4.745 0.072-3.166 0-3.489 0-4.746-0.072-0.74-0.009-1.473-0.146-2.167-0.404-0.507-0.194-0.967-0.491-1.352-0.874s-0.684-0.842-0.88-1.348c-0.255-0.695-0.392-1.427-0.404-2.167-0.056-1.234-0.069-1.582-0.069-4.745 0-3.165 0-3.488 0.069-4.746 0.008-0.748 0.145-1.489 0.404-2.191 0.396-1.025 1.208-1.831 2.232-2.223 0.694-0.257 1.427-0.394 2.167-0.404 1.235-0.056 1.582-0.071 4.746-0.071s3.489 0 4.745 0.071c0.741 0.009 1.474 0.146 2.169 0.404 0.505 0.195 0.964 0.494 1.347 0.877s0.681 0.842 0.877 1.347c0.255 0.695 0.392 1.427 0.404 2.167 0.056 1.235 0.070 1.582 0.070 4.746 0 3.163 0 3.503-0.056 4.745h-0.014v-0.001z"></path>
</symbol>
<symbol id="icon-left-arrow1" viewBox="0 0 32 32">
<path d="M31.106 15h-27.828l8.325-8.293c0.391-0.391 0.391-1.024 0-1.414-0.391-0.391-1.024-0.391-1.414 0l-9.9 9.899c-0.385 0.385-0.385 1.029 0 1.414l9.9 9.9c0.391 0.391 1.024 0.391 1.414 0s0.391-1.024 0-1.414l-8.325-8.092h27.828c0.552 0 1-0.448 1-1s-0.448-1-1-1z"></path>
</symbol>
<symbol id="icon-linkedin1" viewBox="0 0 32 32">
<path fill="#fff" style="fill: var(--color2, #fff)" d="M6.471 9.346c1.569 0 2.841-1.272 2.841-2.841s-1.272-2.841-2.841-2.841c-1.569 0-2.841 1.272-2.841 2.841s1.272 2.841 2.841 2.841z"></path>
<path fill="#fff" style="fill: var(--color2, #fff)" d="M11.995 11.499v15.763h4.894v-7.795c0-2.057 0.387-4.049 2.937-4.049 2.515 0 2.547 2.352 2.547 4.179v7.667h4.897v-8.644c0-4.246-0.914-7.509-5.877-7.509-2.383 0-3.98 1.308-4.633 2.545h-0.066v-2.156h-4.698zM4.019 11.499h4.902v15.763h-4.902v-15.763z"></path>
</symbol>
<symbol id="icon-phone1" viewBox="0 0 32 32">
<path fill="#fe390c" style="fill: var(--color1, #fe390c)" d="M15.401 16.88c5.106 5.104 6.264-0.801 9.515 2.448 3.134 3.133 4.936 3.761 0.965 7.731-0.497 0.4-3.658 5.209-14.764-5.894-11.108-11.105-6.301-14.268-5.902-14.766 3.981-3.981 4.598-2.169 7.732 0.964 3.251 3.25-2.652 4.412 2.454 9.517z"></path>
</symbol>
<symbol id="icon-point1" viewBox="0 0 32 32">
<path fill="#fe390c" style="fill: var(--color1, #fe390c)" d="M16 2.195c-6.352 0-11.52 5.026-11.52 11.204 0 7.119 4.75 11.414 7.9 14.257 1.002 0.947 2.317 1.42 3.628 1.42 1.309 0 2.615-0.471 3.602-1.41 3.15-2.842 7.91-7.14 7.91-14.266 0-6.178-5.168-11.204-11.52-11.204zM16 17.881c-2.541 0-4.608-2.011-4.608-4.482s2.067-4.482 4.608-4.482c2.541 0 4.608 2.011 4.608 4.482s-2.067 4.482-4.608 4.482z"></path>
</symbol>
<symbol id="icon-right-arrow1" viewBox="0 0 32 32">
<path d="M32 16.009c0-0.267-0.11-0.522-0.293-0.714l-9.899-9.999c-0.391-0.395-1.024-0.394-1.414 0s-0.391 1.034 0 1.428l8.193 8.275h-27.587c-0.552 0-1 0.452-1 1.010s0.448 1.010 1 1.010h27.586l-8.192 8.275c-0.391 0.394-0.39 1.034 0 1.428 0.391 0.394 1.024 0.394 1.414 0l9.899-9.999c0.187-0.189 0.29-0.449 0.293-0.714z"></path>
</symbol>
<symbol id="icon-service-icon1" viewBox="0 0 32 32">
<path fill="#fe390c" style="fill: var(--color1, #fe390c)" d="M15.343 2.698c0.535 0 0.97 0.435 0.97 0.97s-0.434 0.97-0.97 0.97h-4.834c-3.341 0-5.499 2.289-5.499 5.831v10.752c0 3.542 2.158 5.831 5.499 5.831h11.409c3.341 0 5.5-2.289 5.5-5.831v-5.209c0-0.535 0.434-0.97 0.97-0.97s0.97 0.435 0.97 0.97v5.209c0 4.648-2.991 7.771-7.439 7.771h-11.409c-4.449 0-7.438-3.123-7.438-7.771v-10.752c0-4.648 2.989-7.771 7.438-7.771h4.834zM26.604 3.834l1.574 1.574c0.767 0.766 1.188 1.783 1.187 2.867 0 1.084-0.422 2.1-1.187 2.864l-9.709 9.711c-0.712 0.713-1.661 1.106-2.67 1.106h-4.843c-0.261 0-0.512-0.106-0.694-0.294-0.182-0.186-0.282-0.438-0.275-0.701l0.122-4.887c0.025-0.972 0.416-1.887 1.104-2.576h0.001l9.662-9.664c1.58-1.578 4.149-1.578 5.729 0zM20.079 7.372l-7.496 7.498c-0.335 0.335-0.525 0.78-0.537 1.252l-0.097 3.894h3.849c0.491 0 0.952-0.19 1.299-0.538l7.541-7.545-4.56-4.561zM22.246 5.206l-0.796 0.794 4.56 4.562 0.797-0.795c0.398-0.398 0.618-0.929 0.618-1.492 0-0.565-0.22-1.097-0.618-1.495l-1.573-1.574c-0.824-0.821-2.163-0.821-2.988 0z"></path>
</symbol>
<symbol id="icon-telegram" viewBox="0 0 32 32">
<path d="M32 0l-32 18 10.227 3.788 15.773-14.788-11.998 16.186 0.010 0.004-0.012-0.004v8.814l5.735-6.691 7.265 2.691 5-28z"></path>
</symbol>
<symbol id="icon-vector-btn1" viewBox="0 0 32 32">
<path fill="#fe390c" style="fill: var(--color1, #fe390c)" d="M28 22v6h-24v-6h-4v6c0 2.2 1.8 4 4 4h24c2.2 0 4-1.8 4-4v-6h-4zM26 14l-2.82-2.82-5.18 5.16v-16.34h-4v16.34l-5.18-5.16-2.82 2.82 10 10 10-10z"></path>
</symbol>
<symbol id="icon-email1" viewBox="0 0 32 32">
<path fill="#fe390c" style="fill: var(--color1, #fe390c)" d="M22.322 4.755c1.716 0 3.368 0.678 4.582 1.896 1.216 1.215 1.896 2.853 1.896 4.568v10.112c0 3.571-2.906 6.464-6.478 6.464h-12.645c-3.572 0-6.477-2.893-6.477-6.464v-10.112c0-3.571 2.892-6.464 6.477-6.464h12.645zM23.77 11.411c-0.269-0.014-0.525 0.077-0.718 0.256l-5.772 4.608c-0.742 0.616-1.806 0.616-2.56 0l-5.76-4.608c-0.398-0.294-0.948-0.256-1.28 0.090-0.346 0.346-0.384 0.896-0.091 1.28l0.168 0.166 5.824 4.544c0.717 0.563 1.586 0.87 2.496 0.87 0.908 0 1.792-0.307 2.508-0.87l5.774-4.621 0.102-0.102c0.306-0.371 0.306-0.909-0.014-1.28-0.178-0.191-0.422-0.307-0.677-0.333z"></path>
</symbol>
<symbol id="icon-github1" viewBox="0 0 32 32">
<path d="M29.854 8.36c-1.431-2.451-3.371-4.392-5.823-5.823s-5.128-2.146-8.031-2.146c-2.903 0-5.58 0.715-8.031 2.146s-4.392 3.371-5.823 5.823c-1.431 2.451-2.146 5.128-2.146 8.031 0 3.486 1.017 6.621 3.052 9.406s4.663 4.712 7.885 5.781c0.375 0.070 0.653 0.021 0.833-0.146s0.271-0.375 0.271-0.625c0-0.042-0.004-0.416-0.011-1.125s-0.011-1.326-0.011-1.854l-0.479 0.083c-0.306 0.056-0.691 0.080-1.156 0.073s-0.948-0.055-1.448-0.146c-0.5-0.090-0.965-0.298-1.396-0.625s-0.736-0.754-0.916-1.281l-0.208-0.479c-0.139-0.319-0.357-0.674-0.656-1.062s-0.601-0.653-0.906-0.792l-0.146-0.104c-0.097-0.069-0.187-0.153-0.271-0.25s-0.146-0.194-0.187-0.292c-0.042-0.097-0.007-0.177 0.104-0.24s0.312-0.093 0.604-0.093l0.417 0.062c0.278 0.056 0.621 0.222 1.031 0.5s0.746 0.639 1.010 1.083c0.32 0.57 0.705 1.004 1.156 1.302s0.906 0.448 1.364 0.448 0.854-0.035 1.187-0.104c0.333-0.069 0.646-0.174 0.937-0.313 0.125-0.931 0.465-1.646 1.021-2.146-0.792-0.083-1.503-0.208-2.135-0.375s-1.285-0.438-1.958-0.813c-0.674-0.375-1.233-0.84-1.677-1.396s-0.809-1.285-1.094-2.188c-0.285-0.903-0.427-1.944-0.427-3.125 0-1.681 0.549-3.111 1.646-4.292-0.514-1.264-0.465-2.68 0.146-4.25 0.403-0.125 1-0.031 1.792 0.281s1.371 0.58 1.74 0.802c0.368 0.222 0.663 0.41 0.885 0.562 1.292-0.361 2.625-0.541 4-0.541s2.708 0.181 4 0.541l0.792-0.5c0.541-0.333 1.181-0.639 1.916-0.917s1.299-0.354 1.688-0.229c0.625 1.569 0.68 2.986 0.166 4.25 1.097 1.181 1.646 2.611 1.646 4.292 0 1.18-0.143 2.225-0.427 3.135s-0.652 1.639-1.104 2.188c-0.452 0.549-1.014 1.011-1.688 1.385s-1.327 0.646-1.958 0.813c-0.632 0.167-1.344 0.292-2.135 0.375 0.722 0.625 1.083 1.611 1.083 2.958v4.395c0 0.25 0.087 0.458 0.261 0.625s0.448 0.215 0.823 0.146c3.222-1.069 5.851-2.996 7.886-5.781s3.052-5.92 3.052-9.406c-0.001-2.902-0.716-5.579-2.146-8.030z"></path>
</symbol>
<symbol id="icon-github11" viewBox="0 0 32 32">
<path d="M29.854 8.36c-1.431-2.451-3.372-4.392-5.823-5.823s-5.128-2.146-8.031-2.146c-2.903 0-5.58 0.715-8.031 2.146s-4.392 3.371-5.823 5.823c-1.431 2.451-2.146 5.128-2.146 8.031 0 3.486 1.017 6.622 3.052 9.406s4.663 4.712 7.885 5.781c0.375 0.070 0.653 0.021 0.833-0.146s0.271-0.375 0.271-0.625c0-0.042-0.004-0.416-0.011-1.125-0.006-0.544-0.010-1.195-0.011-1.847v-0.007l-0.479 0.083c-0.306 0.056-0.691 0.080-1.156 0.073s-0.948-0.055-1.448-0.146c-0.5-0.090-0.965-0.298-1.396-0.625s-0.736-0.754-0.916-1.281l-0.208-0.479c-0.139-0.319-0.357-0.674-0.656-1.062s-0.601-0.653-0.906-0.792l-0.146-0.104c-0.097-0.069-0.187-0.153-0.271-0.25s-0.146-0.194-0.187-0.292c-0.042-0.097-0.007-0.177 0.104-0.24s0.312-0.093 0.604-0.093l0.417 0.062c0.278 0.056 0.621 0.222 1.031 0.5s0.746 0.639 1.010 1.083c0.32 0.57 0.705 1.004 1.156 1.302s0.906 0.448 1.364 0.448 0.854-0.035 1.188-0.104c0.333-0.069 0.646-0.174 0.937-0.313 0.125-0.931 0.465-1.646 1.021-2.146-0.792-0.083-1.503-0.208-2.135-0.375s-1.285-0.438-1.958-0.813c-0.674-0.375-1.233-0.84-1.677-1.396s-0.809-1.285-1.094-2.188c-0.285-0.903-0.427-1.944-0.427-3.125 0-1.681 0.549-3.111 1.646-4.292-0.514-1.264-0.465-2.68 0.146-4.25 0.403-0.125 1-0.031 1.792 0.281s1.371 0.58 1.74 0.802c0.368 0.222 0.663 0.41 0.885 0.562 1.292-0.361 2.625-0.541 4-0.541s2.708 0.181 4 0.541l0.792-0.5c0.541-0.333 1.181-0.639 1.916-0.917s1.299-0.354 1.688-0.229c0.625 1.569 0.68 2.986 0.166 4.25 1.097 1.181 1.646 2.611 1.646 4.292 0 1.18-0.143 2.225-0.427 3.135s-0.652 1.639-1.104 2.188c-0.452 0.549-1.014 1.011-1.688 1.385s-1.327 0.646-1.958 0.813c-0.632 0.167-1.344 0.292-2.135 0.375 0.722 0.625 1.083 1.611 1.083 2.958v4.395c0 0.25 0.087 0.458 0.261 0.625s0.448 0.215 0.823 0.146c3.223-1.069 5.851-2.996 7.886-5.781s3.052-5.92 3.052-9.406c-0.001-2.902-0.716-5.579-2.146-8.030z"></path>
</symbol>
<symbol id="icon-burger" viewBox="0 0 52 32">
<path fill="#57595d" style="fill: var(--color1, #57595d)" d="M0 0h51.692v5.333h-51.692v-5.333zM0 13.333h51.692v5.333l-51.692-0.667v-4.667zM0 26.667h51.692v5.333h-51.692v-5.333z"></path>
</symbol>
<symbol id="icon-menu-close" viewBox="0 0 32 32">
<path d="M31.439 3.166 28.273 0 15.72 12.553 3.167 0 .001 3.166l12.553 12.553L.001 28.272l3.166 3.166L15.72 18.885l12.553 12.553 3.166-3.166-12.553-12.553L31.439 3.166z"/>
</symbol>
<symbol id="close-icon" viewBox="0 0 18 18">
<path d="M15 4.108 13.892 3 9.5 7.392 5.108 3 4 4.108 8.392 8.5 4 12.892 5.108 14 9.5 9.608 13.892 14 15 12.892 10.608 8.5 15 4.108Z"/>
</symbol>
<symbol id="icon-email-form" viewBox="0 0 32 32">
<path d="M26.667 5.333H5.334A2.663 2.663 0 0 0 2.681 8l-.013 16c0 1.467 1.2 2.667 2.667 2.667h21.333c1.467 0 2.667-1.2 2.667-2.667V8c0-1.467-1.2-2.667-2.667-2.667zM26.133 11l-9.427 5.893a1.346 1.346 0 0 1-1.413 0L5.866 11a1.132 1.132 0 1 1 1.2-1.92l8.933 5.587 8.933-5.587a1.132 1.132 0 1 1 1.2 1.92z"/>
</symbol>
<symbol id="icon-phone-form" viewBox="0 0 32 32">
<path d="m24.882 19.773-3.268-.373a2.561 2.561 0 0 0-2.11.733L17.137 22.5a19.357 19.357 0 0 1-8.478-8.478l2.38-2.38a2.561 2.561 0 0 0 .733-2.11l-.373-3.242a2.575 2.575 0 0 0-2.56-2.277H6.613c-1.454 0-2.663 1.209-2.573 2.663.682 10.987 9.469 19.761 20.443 20.443 1.454.09 2.663-1.119 2.663-2.573V22.32a2.549 2.549 0 0 0-2.264-2.547z"/>
</symbol>
<symbol id="icon-person-form" viewBox="0 0 32 32">
<path d="M16 16c2.947 0 5.333-2.387 5.333-5.333S18.946 5.334 16 5.334c-2.947 0-5.333 2.387-5.333 5.333S13.054 16 16 16zm0 2.667c-3.56 0-10.667 1.787-10.667 5.333v1.333c0 .733.6 1.333 1.333 1.333h18.667c.733 0 1.333-.6 1.333-1.333V24c0-3.547-7.107-5.333-10.667-5.333z"/>
</symbol>
</defs>
</svg>
