<svg aria-hidden="true" style="position: absolute; width: 0; height: 0; overflow: hidden;" version="1.1" xmlns="http://www.w3.org/2000/svg" xmlns:xlink="http://www.w3.org/1999/xlink">
<defs>
<symbol id="icon-email" viewBox="0 0 31 32">
<path fill="#fe390c" style="fill: var(--color1, #fe390c)" d="M21.682 4.755c1.716 0 3.368 0.678 4.582 1.896 1.216 1.215 1.896 2.853 1.896 4.568v10.112c0 3.571-2.906 6.464-6.478 6.464h-12.645c-3.572 0-6.477-2.893-6.477-6.464v-10.112c0-3.571 2.892-6.464 6.477-6.464h12.645zM23.13 11.411c-0.269-0.014-0.525 0.077-0.718 0.256l-5.772 4.608c-0.742 0.616-1.806 0.616-2.56 0l-5.76-4.608c-0.398-0.294-0.948-0.256-1.28 0.090-0.346 0.346-0.384 0.896-0.091 1.28l0.168 0.166 5.824 4.544c0.717 0.563 1.586 0.87 2.496 0.87 0.908 0 1.792-0.307 2.508-0.87l5.774-4.621 0.102-0.102c0.306-0.371 0.306-0.909-0.014-1.28-0.178-0.191-0.422-0.307-0.677-0.333z"></path>
</symbol>
<symbol id="icon-github" viewBox="0 0 32 32">
<path  d="M29.854 8.36c-1.431-2.451-3.371-4.392-5.823-5.823s-5.128-2.146-8.031-2.146c-2.903 0-5.58 0.715-8.031 2.146s-4.392 3.371-5.823 5.823c-1.431 2.451-2.146 5.128-2.146 8.031 0 3.486 1.017 6.621 3.052 9.406s4.663 4.712 7.885 5.781c0.375 0.070 0.653 0.021 0.833-0.146s0.271-0.375 0.271-0.625c0-0.042-0.004-0.416-0.011-1.125s-0.011-1.326-0.011-1.854l-0.479 0.083c-0.306 0.056-0.691 0.080-1.156 0.073s-0.948-0.055-1.448-0.146c-0.5-0.090-0.965-0.298-1.396-0.625s-0.736-0.754-0.916-1.281l-0.208-0.479c-0.139-0.319-0.357-0.674-0.656-1.062s-0.601-0.653-0.906-0.792l-0.146-0.104c-0.097-0.069-0.187-0.153-0.271-0.25s-0.146-0.194-0.187-0.292c-0.042-0.097-0.007-0.177 0.104-0.24s0.312-0.093 0.604-0.093l0.417 0.062c0.278 0.056 0.621 0.222 1.031 0.5s0.746 0.639 1.010 1.083c0.32 0.57 0.705 1.004 1.156 1.302s0.906 0.448 1.364 0.448 0.854-0.035 1.187-0.104c0.333-0.069 0.646-0.174 0.937-0.313 0.125-0.931 0.465-1.646 1.021-2.146-0.792-0.083-1.503-0.208-2.135-0.375s-1.285-0.438-1.958-0.813c-0.674-0.375-1.233-0.84-1.677-1.396s-0.809-1.285-1.094-2.188c-0.285-0.903-0.427-1.944-0.427-3.125 0-1.681 0.549-3.111 1.646-4.292-0.514-1.264-0.465-2.68 0.146-4.25 0.403-0.125 1-0.031 1.792 0.281s1.371 0.58 1.74 0.802c0.368 0.222 0.663 0.41 0.885 0.562 1.292-0.361 2.625-0.541 4-0.541s2.708 0.181 4 0.541l0.792-0.5c0.541-0.333 1.181-0.639 1.916-0.917s1.299-0.354 1.688-0.229c0.625 1.569 0.68 2.986 0.166 4.25 1.097 1.181 1.646 2.611 1.646 4.292 0 1.18-0.143 2.225-0.427 3.135s-0.652 1.639-1.104 2.188c-0.452 0.549-1.014 1.011-1.688 1.385s-1.327 0.646-1.958 0.813c-0.632 0.167-1.344 0.292-2.135 0.375 0.722 0.625 1.083 1.611 1.083 2.958v4.395c0 0.25 0.087 0.458 0.261 0.625s0.448 0.215 0.823 0.146c3.222-1.069 5.851-2.996 7.886-5.781s3.052-5.92 3.052-9.406c-0.001-2.902-0.716-5.579-2.146-8.030z"></path>
</symbol>
<symbol id="icon-github2" viewBox="0 0 120 32">
<path d="M22.947 13.655h-10.012c-0.258 0-0.468 0.208-0.468 0.464v4.847c0 0.256 0.21 0.464 0.468 0.464h3.906v6.022c0 0-0.877 0.296-3.302 0.296-2.86 0-6.856-1.035-6.856-9.735 0-8.702 4.161-9.847 8.067-9.847 3.381 0 4.838 0.59 5.765 0.873 0.291 0.088 0.561-0.199 0.561-0.455l1.117-4.683c0-0.12-0.041-0.264-0.179-0.362-0.376-0.266-2.673-1.538-8.475-1.538-6.684 0-13.539 2.816-13.539 16.351s7.849 15.552 14.464 15.552c5.477 0 8.799-2.317 8.799-2.317 0.137-0.075 0.152-0.264 0.152-0.351v-15.116c0-0.256-0.209-0.464-0.468-0.464zM74.515 1.694c0-0.258-0.206-0.466-0.465-0.466h-5.637c-0.257 0-0.467 0.208-0.467 0.466 0 0.001 0.001 10.787 0.001 10.787h-8.787v-10.787c0-0.258-0.207-0.466-0.465-0.466h-5.637c-0.257 0-0.466 0.208-0.466 0.466v29.208c0 0.258 0.209 0.467 0.466 0.467h5.637c0.258 0 0.465-0.21 0.465-0.467v-12.493h8.787c0 0-0.015 12.492-0.015 12.493 0 0.258 0.209 0.467 0.467 0.467h5.651c0.258 0 0.465-0.21 0.465-0.467v-29.208zM33.566 5.599c0-2.010-1.627-3.634-3.635-3.634-2.006 0-3.634 1.624-3.634 3.634 0 2.008 1.629 3.636 3.634 3.636 2.008 0 3.635-1.629 3.635-3.636zM33.119 24.756v-13.482c0-0.256-0.209-0.465-0.466-0.465h-5.619c-0.258 0-0.488 0.263-0.488 0.519v19.316c0 0.568 0.357 0.736 0.82 0.736h5.063c0.555 0 0.692-0.27 0.692-0.746v-5.879zM96.060 10.808h-5.594c-0.257 0-0.465 0.209-0.465 0.467v14.322c0 0-1.421 1.029-3.438 1.029s-2.552-0.906-2.552-2.862v-12.489c0-0.258-0.208-0.467-0.465-0.467h-5.677c-0.256 0-0.466 0.209-0.466 0.467v13.435c0 5.809 3.269 7.23 7.767 7.23 3.69 0 6.665-2.018 6.665-2.018s0.142 1.064 0.206 1.19c0.064 0.126 0.231 0.253 0.412 0.253l3.612-0.016c0.256 0 0.466-0.21 0.466-0.466l-0.002-19.607c0-0.258-0.209-0.467-0.467-0.467zM108.949 26.637c-1.94-0.058-3.256-0.93-3.256-0.93v-9.25c0 0 1.298-0.788 2.891-0.929 2.014-0.179 3.955 0.424 3.955 5.182 0 5.018-0.876 6.008-3.59 5.927zM111.155 10.181c-3.177 0-5.338 1.404-5.338 1.404v-9.89c0-0.258-0.208-0.466-0.465-0.466h-5.653c-0.257 0-0.466 0.208-0.466 0.466v29.208c0 0.258 0.209 0.467 0.467 0.467h3.922c0.177 0 0.31-0.090 0.409-0.248 0.097-0.157 0.238-1.347 0.238-1.347s2.312 2.169 6.688 2.169c5.137 0 8.084-2.58 8.084-11.583s-4.705-10.18-7.885-10.18zM49.343 10.758h-4.229c0 0-0.007-5.53-0.007-5.531 0-0.209-0.109-0.314-0.353-0.314h-5.762c-0.224 0-0.344 0.098-0.344 0.311v5.716c0 0-2.888 0.69-3.083 0.746s-0.338 0.233-0.338 0.445v3.592c0 0.258 0.208 0.467 0.466 0.467h2.954v8.641c0 6.418 4.547 7.049 7.615 7.049 1.402 0 3.079-0.446 3.356-0.547 0.167-0.061 0.265-0.233 0.265-0.419l0.005-3.951c0-0.258-0.22-0.466-0.467-0.466-0.246 0-0.877 0.099-1.526 0.099-2.077 0-2.781-0.956-2.781-2.194 0-1.237-0-8.212-0-8.212h4.229c0.258 0 0.466-0.208 0.466-0.467v-4.499c0-0.258-0.209-0.466-0.466-0.466z"></path>
</symbol>
<symbol id="icon-instagram" viewBox="0 0 32 32">
<path d="M15.581 9.58c-1.592 0-3.12 0.633-4.246 1.759s-1.759 2.653-1.759 4.246c0 1.593 0.633 3.12 1.759 4.246s2.653 1.759 4.246 1.759c1.592 0 3.12-0.633 4.246-1.759s1.759-2.653 1.759-4.246-0.633-3.12-1.759-4.246c-1.126-1.126-2.653-1.759-4.246-1.759zM15.581 19.484c-1.035 0-2.027-0.411-2.758-1.143s-1.143-1.724-1.143-2.758c0-1.035 0.411-2.027 1.143-2.758s1.724-1.143 2.758-1.143c1.035 0 2.027 0.411 2.758 1.143s1.143 1.724 1.143 2.758c0 1.035-0.411 2.027-1.143 2.758s-1.724 1.143-2.758 1.143z"></path>
<path d="M21.823 10.759c0.773 0 1.4-0.627 1.4-1.4s-0.627-1.4-1.4-1.4c-0.773 0-1.4 0.627-1.4 1.4s0.627 1.4 1.4 1.4z"></path>
<path d="M26.663 7.936c-0.301-0.776-0.76-1.481-1.349-2.070s-1.294-1.048-2.070-1.348c-0.909-0.341-1.868-0.525-2.839-0.545-1.25-0.055-1.647-0.070-4.818-0.070s-3.577 0-4.818 0.070c-0.97 0.019-1.929 0.203-2.836 0.545-0.777 0.3-1.482 0.759-2.071 1.348s-1.048 1.294-1.348 2.070c-0.341 0.908-0.525 1.868-0.544 2.839-0.056 1.249-0.073 1.645-0.073 4.818 0 3.171 0 3.575 0.073 4.818 0.019 0.971 0.203 1.93 0.544 2.84 0.301 0.776 0.761 1.481 1.35 2.070s1.294 1.048 2.071 1.348c0.906 0.355 1.865 0.552 2.837 0.584 1.251 0.055 1.647 0.071 4.818 0.071s3.577 0 4.818-0.071c0.97-0.020 1.93-0.204 2.839-0.544 0.776-0.301 1.481-0.761 2.070-1.349s1.048-1.294 1.349-2.070c0.342-0.909 0.525-1.867 0.544-2.839 0.056-1.249 0.073-1.645 0.073-4.818s0-3.575-0.073-4.818c-0.015-0.984-0.2-1.958-0.547-2.879zM25.082 20.313c-0.009 0.748-0.145 1.49-0.404 2.192-0.195 0.505-0.494 0.964-0.876 1.346s-0.842 0.681-1.347 0.876c-0.694 0.258-1.428 0.394-2.169 0.404-1.234 0.057-1.581 0.072-4.745 0.072-3.166 0-3.489 0-4.746-0.072-0.74-0.009-1.473-0.146-2.167-0.404-0.507-0.194-0.967-0.491-1.352-0.874s-0.684-0.842-0.88-1.348c-0.255-0.695-0.392-1.427-0.404-2.167-0.056-1.234-0.069-1.582-0.069-4.745 0-3.165 0-3.488 0.069-4.746 0.008-0.748 0.145-1.489 0.404-2.191 0.396-1.025 1.208-1.831 2.232-2.223 0.694-0.257 1.427-0.394 2.167-0.404 1.235-0.056 1.582-0.071 4.746-0.071s3.489 0 4.745 0.071c0.741 0.009 1.474 0.146 2.169 0.404 0.505 0.195 0.964 0.494 1.347 0.877s0.681 0.842 0.877 1.347c0.255 0.695 0.392 1.427 0.404 2.167 0.056 1.235 0.070 1.582 0.070 4.746 0 3.163 0 3.503-0.056 4.745h-0.014v-0.001z"></path>
</symbol>
<symbol id="icon-left-arrow" viewBox="0 0 32 32">
<path d="M31.106 15h-27.828l8.325-8.293c0.391-0.391 0.391-1.024 0-1.414-0.391-0.391-1.024-0.391-1.414 0l-9.9 9.899c-0.385 0.385-0.385 1.029 0 1.414l9.9 9.9c0.391 0.391 1.024 0.391 1.414 0s0.391-1.024 0-1.414l-8.325-8.092h27.828c0.552 0 1-0.448 1-1s-0.448-1-1-1z"></path>
</symbol>
<symbol id="icon-linkedin" viewBox="0 0 32 32">
<path d="M6.471 9.346c1.569 0 2.841-1.272 2.841-2.841s-1.272-2.841-2.841-2.841c-1.569 0-2.841 1.272-2.841 2.841s1.272 2.841 2.841 2.841z"></path>
<path d="M11.995 11.499v15.763h4.894v-7.795c0-2.057 0.387-4.049 2.937-4.049 2.515 0 2.547 2.352 2.547 4.179v7.667h4.897v-8.644c0-4.246-0.914-7.509-5.877-7.509-2.383 0-3.98 1.308-4.633 2.545h-0.066v-2.156h-4.698zM4.019 11.499h4.902v15.763h-4.902v-15.763z"></path>
</symbol>
<symbol id="icon-phone" viewBox="0 0 31 32">
<path fill="#fe390c" style="fill: var(--color1, #fe390c)" d="M14.761 16.88c5.106 5.104 6.264-0.801 9.515 2.448 3.134 3.133 4.936 3.761 0.965 7.731-0.497 0.4-3.658 5.209-14.764-5.894-11.108-11.105-6.301-14.268-5.902-14.766 3.981-3.981 4.598-2.169 7.732 0.964 3.251 3.25-2.652 4.412 2.454 9.517z"></path>
</symbol>
<symbol id="icon-point" viewBox="0 0 31 32">
<path fill="#fe390c" style="fill: var(--color1, #fe390c)" d="M15.36 2.195c-6.352 0-11.52 5.026-11.52 11.204 0 7.119 4.75 11.414 7.9 14.257 1.002 0.947 2.317 1.42 3.628 1.42 1.309 0 2.615-0.471 3.602-1.41 3.15-2.842 7.91-7.14 7.91-14.266 0-6.178-5.168-11.204-11.52-11.204zM15.36 17.881c-2.541 0-4.608-2.011-4.608-4.482s2.067-4.482 4.608-4.482c2.541 0 4.608 2.011 4.608 4.482s-2.067 4.482-4.608 4.482z"></path>
</symbol>
<symbol id="icon-right-arrow" viewBox="0 0 32 32">
<path d="M32 16.009c0-0.267-0.11-0.522-0.293-0.714l-9.899-9.999c-0.391-0.395-1.024-0.394-1.414 0s-0.391 1.034 0 1.428l8.193 8.275h-27.587c-0.552 0-1 0.452-1 1.010s0.448 1.010 1 1.010h27.586l-8.192 8.275c-0.391 0.394-0.39 1.034 0 1.428 0.391 0.394 1.024 0.394 1.414 0l9.899-9.999c0.187-0.189 0.29-0.449 0.293-0.714z"></path>
</symbol>
<symbol id="icon-service" viewBox="0 0 31 32">
<path d="M14.858 2.698c0.535 0 0.97 0.435 0.97 0.97s-0.434 0.97-0.97 0.97h-4.834c-3.341 0-5.499 2.289-5.499 5.831v10.752c0 3.542 2.158 5.831 5.499 5.831h11.409c3.341 0 5.5-2.289 5.5-5.831v-5.209c0-0.535 0.434-0.97 0.97-0.97s0.97 0.435 0.97 0.97v5.209c0 4.648-2.991 7.771-7.439 7.771h-11.409c-4.449 0-7.438-3.123-7.438-7.771v-10.752c0-4.648 2.989-7.771 7.438-7.771h4.834zM26.119 3.834l1.574 1.574c0.767 0.766 1.188 1.783 1.187 2.867 0 1.084-0.422 2.1-1.187 2.864l-9.709 9.711c-0.712 0.713-1.661 1.106-2.67 1.106h-4.843c-0.261 0-0.512-0.106-0.694-0.294-0.182-0.186-0.282-0.438-0.275-0.701l0.122-4.887c0.025-0.972 0.416-1.887 1.104-2.576h0.001l9.662-9.664c1.58-1.578 4.149-1.578 5.729 0zM19.594 7.372l-7.496 7.498c-0.335 0.335-0.525 0.78-0.537 1.252l-0.097 3.894h3.849c0.491 0 0.952-0.19 1.299-0.538l7.541-7.545-4.56-4.561zM21.761 5.206l-0.796 0.794 4.56 4.562 0.797-0.795c0.398-0.398 0.618-0.929 0.618-1.492 0-0.565-0.22-1.097-0.618-1.495l-1.573-1.574c-0.824-0.821-2.163-0.821-2.988 0z"></path>
</symbol>
<symbol id="icon-vector-btn" viewBox="0 0 32 32">
<path fill="#fe390c" style="fill: var(--color1, #fe390c)" d="M28 22v6h-24v-6h-4v6c0 2.2 1.8 4 4 4h24c2.2 0 4-1.8 4-4v-6h-4zM26 14l-2.82-2.82-5.18 5.16v-16.34h-4v16.34l-5.18-5.16-2.82 2.82 10 10 10-10z"></path>
</symbol>
<symbol id="icon-arrow-left" viewBox="0 0 32 32">
<path stroke-linejoin="round" stroke-linecap="round" stroke-miterlimit="4" stroke-width="2.6667" d="M25.333 16h-18.667"></path>
<path stroke-linejoin="round" stroke-linecap="round" stroke-miterlimit="4" stroke-width="2.6667" d="M15.999 25.333l-9.333-9.333 9.333-9.333"></path>
</symbol>
<symbol id="icon-arrow-right" viewBox="0 0 32 32">
<path stroke-linejoin="round" stroke-linecap="round" stroke-miterlimit="4" stroke-width="2.6667" d="M6.667 16h18.667"></path>
<path stroke-linejoin="round" stroke-linecap="round" stroke-miterlimit="4" stroke-width="2.6667" d="M16.001 25.333l9.333-9.333-9.333-9.333"></path>
</symbol>
<symbol id="icon-close" viewBox="0 0 32 32">
<path d="M17.253 16l7.369-7.369c0.146-0.17 0.222-0.389 0.213-0.613s-0.101-0.436-0.26-0.594c-0.158-0.158-0.371-0.251-0.594-0.26s-0.442 0.067-0.612 0.213l-7.369 7.369-7.369-7.378c-0.167-0.167-0.394-0.261-0.631-0.261s-0.464 0.094-0.631 0.261c-0.167 0.167-0.261 0.394-0.261 0.631s0.094 0.464 0.261 0.631l7.378 7.369-7.378 7.369c-0.093 0.080-0.169 0.178-0.222 0.288s-0.083 0.23-0.088 0.353c-0.005 0.122 0.016 0.244 0.061 0.358s0.112 0.218 0.199 0.304 0.19 0.154 0.304 0.199c0.114 0.045 0.236 0.065 0.359 0.061s0.243-0.035 0.353-0.088 0.208-0.129 0.288-0.222l7.378-7.369 7.369 7.369c0.17 0.146 0.389 0.222 0.612 0.213s0.436-0.101 0.594-0.26c0.158-0.158 0.251-0.371 0.26-0.594s-0.067-0.442-0.213-0.612l-7.369-7.369z"></path>
</symbol>
<symbol id="icon-heart" viewBox="0 0 32 32">
<path fill="#b92f2c" style="fill: var(--color3, #b92f2c)" d="M16 30.583l-2.24-2.24c-8.32-7.36-13.76-12.32-13.76-18.4 0-4.96 3.84-8.8 8.8-8.8 2.72 0 5.44 1.28 7.2 3.36 1.76-2.080 4.48-3.36 7.2-3.36 4.96 0 8.8 3.84 8.8 8.8 0 6.080-5.44 11.040-13.76 18.4l-2.24 2.24z"></path>
</symbol>
<symbol id="icon-search" viewBox="0 0 32 32">
<path stroke-linejoin="round" stroke-linecap="round" stroke-miterlimit="4" stroke-width="2" d="M14.667 25.333c5.891 0 10.667-4.776 10.667-10.667s-4.776-10.667-10.667-10.667c-5.891 0-10.667 4.776-10.667 10.667s4.776 10.667 10.667 10.667z"></path>
<path stroke-linejoin="round" stroke-linecap="round" stroke-miterlimit="4" stroke-width="2" d="M28 28l-5.8-5.8"></path>
</symbol>
<symbol id="icon-group1" viewBox="0 0 32 32">
<path d="M6.119 15.375h-2.67c-0.069 0-0.125 0.055-0.125 0.124v1.293c0 0.068 0.056 0.124 0.125 0.124h1.041v1.606c0 0-0.234 0.079-0.88 0.079-0.763 0-1.828-0.276-1.828-2.596s1.11-2.626 2.151-2.626c0.902 0 1.29 0.157 1.537 0.233 0.078 0.024 0.149-0.053 0.149-0.121l0.298-1.249c0-0.032-0.011-0.070-0.048-0.097-0.1-0.071-0.713-0.41-2.26-0.41-1.782 0-3.61 0.751-3.61 4.36s2.093 4.147 3.857 4.147c1.46 0 2.346-0.618 2.346-0.618 0.037-0.020 0.040-0.070 0.040-0.094v-4.031c0-0.068-0.056-0.124-0.125-0.124zM19.871 12.185c0-0.069-0.055-0.124-0.124-0.124h-1.503c-0.069 0-0.125 0.055-0.125 0.124 0 0 0 2.877 0 2.877h-2.343v-2.877c0-0.069-0.055-0.124-0.124-0.124h-1.503c-0.068 0-0.124 0.055-0.124 0.124v7.789c0 0.069 0.056 0.125 0.124 0.125h1.503c0.069 0 0.124-0.056 0.124-0.125v-3.332h2.343c0 0-0.004 3.331-0.004 3.332 0 0.069 0.056 0.125 0.125 0.125h1.507c0.069 0 0.124-0.056 0.124-0.125v-7.789zM8.951 13.226c0-0.536-0.434-0.969-0.969-0.969s-0.969 0.433-0.969 0.969c0 0.535 0.434 0.97 0.969 0.97s0.969-0.434 0.969-0.97zM8.832 18.335v-3.595c0-0.068-0.056-0.124-0.124-0.124h-1.498c-0.069 0-0.13 0.070-0.13 0.138v5.151c0 0.151 0.095 0.196 0.219 0.196h1.35c0.148 0 0.184-0.072 0.184-0.199v-1.568zM25.616 14.616h-1.492c-0.068 0-0.124 0.056-0.124 0.125v3.819c0 0-0.379 0.275-0.917 0.275s-0.681-0.242-0.681-0.763v-3.331c0-0.069-0.056-0.125-0.124-0.125h-1.514c-0.068 0-0.124 0.056-0.124 0.125v3.583c0 1.549 0.872 1.928 2.071 1.928 0.984 0 1.777-0.538 1.777-0.538s0.038 0.284 0.055 0.317c0.017 0.034 0.062 0.067 0.11 0.067l0.963-0.004c0.068 0 0.124-0.056 0.124-0.124l-0-5.229c0-0.069-0.056-0.125-0.125-0.125zM29.053 18.837c-0.517-0.016-0.868-0.248-0.868-0.248v-2.467c0 0 0.346-0.21 0.771-0.248 0.537-0.048 1.055 0.113 1.055 1.382 0 1.338-0.234 1.602-0.957 1.58zM29.641 14.448c-0.847 0-1.424 0.374-1.424 0.374v-2.637c0-0.069-0.056-0.124-0.124-0.124h-1.507c-0.069 0-0.124 0.055-0.124 0.124v7.789c0 0.069 0.056 0.125 0.124 0.125h1.046c0.047 0 0.083-0.024 0.109-0.066s0.064-0.359 0.064-0.359 0.616 0.578 1.783 0.578c1.37 0 2.156-0.688 2.156-3.089s-1.255-2.715-2.103-2.715zM13.158 14.602h-1.128c0 0-0.002-1.475-0.002-1.475 0-0.056-0.029-0.084-0.094-0.084h-1.537c-0.060 0-0.092 0.026-0.092 0.083v1.524c0 0-0.77 0.184-0.822 0.199s-0.090 0.062-0.090 0.119v0.958c0 0.069 0.056 0.124 0.124 0.124h0.788v2.304c0 1.712 1.213 1.88 2.031 1.88 0.374 0 0.821-0.119 0.895-0.146 0.045-0.016 0.071-0.062 0.071-0.112l0.001-1.054c0-0.069-0.059-0.124-0.125-0.124s-0.234 0.026-0.407 0.026c-0.554 0-0.742-0.255-0.742-0.585s-0-2.19-0-2.19h1.128c0.069 0 0.124-0.056 0.124-0.124v-1.2c0-0.069-0.056-0.124-0.124-0.124z"></path>
</symbol>
<symbol id="icon-instagram1" viewBox="0 0 32 32">
<path d="M15.581 9.58c-1.592 0-3.12 0.633-4.246 1.759s-1.759 2.653-1.759 4.246c0 1.593 0.633 3.12 1.759 4.246s2.653 1.759 4.246 1.759c1.592 0 3.12-0.633 4.246-1.759s1.759-2.653 1.759-4.246-0.633-3.12-1.759-4.246c-1.126-1.126-2.653-1.759-4.246-1.759zM15.581 19.484c-1.035 0-2.027-0.411-2.758-1.143s-1.143-1.724-1.143-2.758c0-1.035 0.411-2.027 1.143-2.758s1.724-1.143 2.758-1.143c1.035 0 2.027 0.411 2.758 1.143s1.143 1.724 1.143 2.758c0 1.035-0.411 2.027-1.143 2.758s-1.724 1.143-2.758 1.143z"></path>
<path d="M21.823 10.759c0.773 0 1.4-0.627 1.4-1.4s-0.627-1.4-1.4-1.4c-0.773 0-1.4 0.627-1.4 1.4s0.627 1.4 1.4 1.4z"></path>
<path d="M26.663 7.936c-0.301-0.776-0.76-1.481-1.349-2.070s-1.294-1.048-2.070-1.348c-0.909-0.341-1.868-0.525-2.839-0.545-1.25-0.055-1.647-0.070-4.818-0.070s-3.577 0-4.818 0.070c-0.97 0.019-1.929 0.203-2.836 0.545-0.777 0.3-1.482 0.759-2.071 1.348s-1.048 1.294-1.348 2.070c-0.341 0.908-0.525 1.868-0.544 2.839-0.056 1.249-0.073 1.645-0.073 4.818 0 3.171 0 3.575 0.073 4.818 0.019 0.971 0.203 1.93 0.544 2.84 0.301 0.776 0.761 1.481 1.35 2.070s1.294 1.048 2.071 1.348c0.906 0.355 1.865 0.552 2.837 0.584 1.251 0.055 1.647 0.071 4.818 0.071s3.577 0 4.818-0.071c0.97-0.020 1.93-0.204 2.839-0.544 0.776-0.301 1.481-0.761 2.070-1.349s1.048-1.294 1.349-2.070c0.342-0.909 0.525-1.867 0.544-2.839 0.056-1.249 0.073-1.645 0.073-4.818s0-3.575-0.073-4.818c-0.015-0.984-0.2-1.958-0.547-2.879zM25.082 20.313c-0.009 0.748-0.145 1.49-0.404 2.192-0.195 0.505-0.494 0.964-0.876 1.346s-0.842 0.681-1.347 0.876c-0.694 0.258-1.428 0.394-2.169 0.404-1.234 0.057-1.581 0.072-4.745 0.072-3.166 0-3.489 0-4.746-0.072-0.74-0.009-1.473-0.146-2.167-0.404-0.507-0.194-0.967-0.491-1.352-0.874s-0.684-0.842-0.88-1.348c-0.255-0.695-0.392-1.427-0.404-2.167-0.056-1.234-0.069-1.582-0.069-4.745 0-3.165 0-3.488 0.069-4.746 0.008-0.748 0.145-1.489 0.404-2.191 0.396-1.025 1.208-1.831 2.232-2.223 0.694-0.257 1.427-0.394 2.167-0.404 1.235-0.056 1.582-0.071 4.746-0.071s3.489 0 4.745 0.071c0.741 0.009 1.474 0.146 2.169 0.404 0.505 0.195 0.964 0.494 1.347 0.877s0.681 0.842 0.877 1.347c0.255 0.695 0.392 1.427 0.404 2.167 0.056 1.235 0.070 1.582 0.070 4.746 0 3.163 0 3.503-0.056 4.745h-0.014v-0.001z"></path>
</symbol>
<symbol id="icon-left-arrow1" viewBox="0 0 32 32">
<path d="M31.106 15h-27.828l8.325-8.293c0.391-0.391 0.391-1.024 0-1.414-0.391-0.391-1.024-0.391-1.414 0l-9.9 9.899c-0.385 0.385-0.385 1.029 0 1.414l9.9 9.9c0.391 0.391 1.024 0.391 1.414 0s0.391-1.024 0-1.414l-8.325-8.092h27.828c0.552 0 1-0.448 1-1s-0.448-1-1-1z"></path>
</symbol>
<symbol id="icon-linkedin1" viewBox="0 0 32 32">
<path fill="#fff" style="fill: var(--color2, #fff)" d="M6.471 9.346c1.569 0 2.841-1.272 2.841-2.841s-1.272-2.841-2.841-2.841c-1.569 0-2.841 1.272-2.841 2.841s1.272 2.841 2.841 2.841z"></path>
<path fill="#fff" style="fill: var(--color2, #fff)" d="M11.995 11.499v15.763h4.894v-7.795c0-2.057 0.387-4.049 2.937-4.049 2.515 0 2.547 2.352 2.547 4.179v7.667h4.897v-8.644c0-4.246-0.914-7.509-5.877-7.509-2.383 0-3.98 1.308-4.633 2.545h-0.066v-2.156h-4.698zM4.019 11.499h4.902v15.763h-4.902v-15.763z"></path>
</symbol>
<symbol id="icon-phone1" viewBox="0 0 32 32">
<path fill="#fe390c" style="fill: var(--color1, #fe390c)" d="M15.401 16.88c5.106 5.104 6.264-0.801 9.515 2.448 3.134 3.133 4.936 3.761 0.965 7.731-0.497 0.4-3.658 5.209-14.764-5.894-11.108-11.105-6.301-14.268-5.902-14.766 3.981-3.981 4.598-2.169 7.732 0.964 3.251 3.25-2.652 4.412 2.454 9.517z"></path>
</symbol>
<symbol id="icon-point1" viewBox="0 0 32 32">
<path fill="#fe390c" style="fill: var(--color1, #fe390c)" d="M16 2.195c-6.352 0-11.52 5.026-11.52 11.204 0 7.119 4.75 11.414 7.9 14.257 1.002 0.947 2.317 1.42 3.628 1.42 1.309 0 2.615-0.471 3.602-1.41 3.15-2.842 7.91-7.14 7.91-14.266 0-6.178-5.168-11.204-11.52-11.204zM16 17.881c-2.541 0-4.608-2.011-4.608-4.482s2.067-4.482 4.608-4.482c2.541 0 4.608 2.011 4.608 4.482s-2.067 4.482-4.608 4.482z"></path>
</symbol>
<symbol id="icon-right-arrow1" viewBox="0 0 32 32">
<path d="M32 16.009c0-0.267-0.11-0.522-0.293-0.714l-9.899-9.999c-0.391-0.395-1.024-0.394-1.414 0s-0.391 1.034 0 1.428l8.193 8.275h-27.587c-0.552 0-1 0.452-1 1.010s0.448 1.010 1 1.010h27.586l-8.192 8.275c-0.391 0.394-0.39 1.034 0 1.428 0.391 0.394 1.024 0.394 1.414 0l9.899-9.999c0.187-0.189 0.29-0.449 0.293-0.714z"></path>
</symbol>
<symbol id="icon-service-icon1" viewBox="0 0 32 32">
<path fill="#fe390c" style="fill: var(--color1, #fe390c)" d="M15.343 2.698c0.535 0 0.97 0.435 0.97 0.97s-0.434 0.97-0.97 0.97h-4.834c-3.341 0-5.499 2.289-5.499 5.831v10.752c0 3.542 2.158 5.831 5.499 5.831h11.409c3.341 0 5.5-2.289 5.5-5.831v-5.209c0-0.535 0.434-0.97 0.97-0.97s0.97 0.435 0.97 0.97v5.209c0 4.648-2.991 7.771-7.439 7.771h-11.409c-4.449 0-7.438-3.123-7.438-7.771v-10.752c0-4.648 2.989-7.771 7.438-7.771h4.834zM26.604 3.834l1.574 1.574c0.767 0.766 1.188 1.783 1.187 2.867 0 1.084-0.422 2.1-1.187 2.864l-9.709 9.711c-0.712 0.713-1.661 1.106-2.67 1.106h-4.843c-0.261 0-0.512-0.106-0.694-0.294-0.182-0.186-0.282-0.438-0.275-0.701l0.122-4.887c0.025-0.972 0.416-1.887 1.104-2.576h0.001l9.662-9.664c1.58-1.578 4.149-1.578 5.729 0zM20.079 7.372l-7.496 7.498c-0.335 0.335-0.525 0.78-0.537 1.252l-0.097 3.894h3.849c0.491 0 0.952-0.19 1.299-0.538l7.541-7.545-4.56-4.561zM22.246 5.206l-0.796 0.794 4.56 4.562 0.797-0.795c0.398-0.398 0.618-0.929 0.618-1.492 0-0.565-0.22-1.097-0.618-1.495l-1.573-1.574c-0.824-0.821-2.163-0.821-2.988 0z"></path>
</symbol>
<symbol id="icon-telegram" viewBox="0 0 32 32">
<path d="M32 0l-32 18 10.227 3.788 15.773-14.788-11.998 16.186 0.010 0.004-0.012-0.004v8.814l5.735-6.691 7.265 2.691 5-28z"></path>
</symbol>
<symbol id="icon-vector-btn1" viewBox="0 0 32 32">
<path fill="#fe390c" style="fill: var(--color1, #fe390c)" d="M28 22v6h-24v-6h-4v6c0 2.2 1.8 4 4 4h24c2.2 0 4-1.8 4-4v-6h-4zM26 14l-2.82-2.82-5.18 5.16v-16.34h-4v16.34l-5.18-5.16-2.82 2.82 10 10 10-10z"></path>
</symbol>
<symbol id="icon-email1" viewBox="0 0 32 32">
<path fill="#fe390c" style="fill: var(--color1, #fe390c)" d="M22.322 4.755c1.716 0 3.368 0.678 4.582 1.896 1.216 1.215 1.896 2.853 1.896 4.568v10.112c0 3.571-2.906 6.464-6.478 6.464h-12.645c-3.572 0-6.477-2.893-6.477-6.464v-10.112c0-3.571 2.892-6.464 6.477-6.464h12.645zM23.77 11.411c-0.269-0.014-0.525 0.077-0.718 0.256l-5.772 4.608c-0.742 0.616-1.806 0.616-2.56 0l-5.76-4.608c-0.398-0.294-0.948-0.256-1.28 0.090-0.346 0.346-0.384 0.896-0.091 1.28l0.168 0.166 5.824 4.544c0.717 0.563 1.586 0.87 2.496 0.87 0.908 0 1.792-0.307 2.508-0.87l5.774-4.621 0.102-0.102c0.306-0.371 0.306-0.909-0.014-1.28-0.178-0.191-0.422-0.307-0.677-0.333z"></path>
</symbol>
<symbol id="icon-github1" viewBox="0 0 32 32">
<path d="M29.854 8.36c-1.431-2.451-3.371-4.392-5.823-5.823s-5.128-2.146-8.031-2.146c-2.903 0-5.58 0.715-8.031 2.146s-4.392 3.371-5.823 5.823c-1.431 2.451-2.146 5.128-2.146 8.031 0 3.486 1.017 6.621 3.052 9.406s4.663 4.712 7.885 5.781c0.375 0.070 0.653 0.021 0.833-0.146s0.271-0.375 0.271-0.625c0-0.042-0.004-0.416-0.011-1.125s-0.011-1.326-0.011-1.854l-0.479 0.083c-0.306 0.056-0.691 0.080-1.156 0.073s-0.948-0.055-1.448-0.146c-0.5-0.090-0.965-0.298-1.396-0.625s-0.736-0.754-0.916-1.281l-0.208-0.479c-0.139-0.319-0.357-0.674-0.656-1.062s-0.601-0.653-0.906-0.792l-0.146-0.104c-0.097-0.069-0.187-0.153-0.271-0.25s-0.146-0.194-0.187-0.292c-0.042-0.097-0.007-0.177 0.104-0.24s0.312-0.093 0.604-0.093l0.417 0.062c0.278 0.056 0.621 0.222 1.031 0.5s0.746 0.639 1.010 1.083c0.32 0.57 0.705 1.004 1.156 1.302s0.906 0.448 1.364 0.448 0.854-0.035 1.187-0.104c0.333-0.069 0.646-0.174 0.937-0.313 0.125-0.931 0.465-1.646 1.021-2.146-0.792-0.083-1.503-0.208-2.135-0.375s-1.285-0.438-1.958-0.813c-0.674-0.375-1.233-0.84-1.677-1.396s-0.809-1.285-1.094-2.188c-0.285-0.903-0.427-1.944-0.427-3.125 0-1.681 0.549-3.111 1.646-4.292-0.514-1.264-0.465-2.68 0.146-4.25 0.403-0.125 1-0.031 1.792 0.281s1.371 0.58 1.74 0.802c0.368 0.222 0.663 0.41 0.885 0.562 1.292-0.361 2.625-0.541 4-0.541s2.708 0.181 4 0.541l0.792-0.5c0.541-0.333 1.181-0.639 1.916-0.917s1.299-0.354 1.688-0.229c0.625 1.569 0.68 2.986 0.166 4.25 1.097 1.181 1.646 2.611 1.646 4.292 0 1.18-0.143 2.225-0.427 3.135s-0.652 1.639-1.104 2.188c-0.452 0.549-1.014 1.011-1.688 1.385s-1.327 0.646-1.958 0.813c-0.632 0.167-1.344 0.292-2.135 0.375 0.722 0.625 1.083 1.611 1.083 2.958v4.395c0 0.25 0.087 0.458 0.261 0.625s0.448 0.215 0.823 0.146c3.222-1.069 5.851-2.996 7.886-5.781s3.052-5.92 3.052-9.406c-0.001-2.902-0.716-5.579-2.146-8.030z"></path>
</symbol>
<symbol id="icon-github11" viewBox="0 0 32 32">
<path d="M29.854 8.36c-1.431-2.451-3.372-4.392-5.823-5.823s-5.128-2.146-8.031-2.146c-2.903 0-5.58 0.715-8.031 2.146s-4.392 3.371-5.823 5.823c-1.431 2.451-2.146 5.128-2.146 8.031 0 3.486 1.017 6.622 3.052 9.406s4.663 4.712 7.885 5.781c0.375 0.070 0.653 0.021 0.833-0.146s0.271-0.375 0.271-0.625c0-0.042-0.004-0.416-0.011-1.125-0.006-0.544-0.010-1.195-0.011-1.847v-0.007l-0.479 0.083c-0.306 0.056-0.691 0.080-1.156 0.073s-0.948-0.055-1.448-0.146c-0.5-0.090-0.965-0.298-1.396-0.625s-0.736-0.754-0.916-1.281l-0.208-0.479c-0.139-0.319-0.357-0.674-0.656-1.062s-0.601-0.653-0.906-0.792l-0.146-0.104c-0.097-0.069-0.187-0.153-0.271-0.25s-0.146-0.194-0.187-0.292c-0.042-0.097-0.007-0.177 0.104-0.24s0.312-0.093 0.604-0.093l0.417 0.062c0.278 0.056 0.621 0.222 1.031 0.5s0.746 0.639 1.010 1.083c0.32 0.57 0.705 1.004 1.156 1.302s0.906 0.448 1.364 0.448 0.854-0.035 1.188-0.104c0.333-0.069 0.646-0.174 0.937-0.313 0.125-0.931 0.465-1.646 1.021-2.146-0.792-0.083-1.503-0.208-2.135-0.375s-1.285-0.438-1.958-0.813c-0.674-0.375-1.233-0.84-1.677-1.396s-0.809-1.285-1.094-2.188c-0.285-0.903-0.427-1.944-0.427-3.125 0-1.681 0.549-3.111 1.646-4.292-0.514-1.264-0.465-2.68 0.146-4.25 0.403-0.125 1-0.031 1.792 0.281s1.371 0.58 1.74 0.802c0.368 0.222 0.663 0.41 0.885 0.562 1.292-0.361 2.625-0.541 4-0.541s2.708 0.181 4 0.541l0.792-0.5c0.541-0.333 1.181-0.639 1.916-0.917s1.299-0.354 1.688-0.229c0.625 1.569 0.68 2.986 0.166 4.25 1.097 1.181 1.646 2.611 1.646 4.292 0 1.18-0.143 2.225-0.427 3.135s-0.652 1.639-1.104 2.188c-0.452 0.549-1.014 1.011-1.688 1.385s-1.327 0.646-1.958 0.813c-0.632 0.167-1.344 0.292-2.135 0.375 0.722 0.625 1.083 1.611 1.083 2.958v4.395c0 0.25 0.087 0.458 0.261 0.625s0.448 0.215 0.823 0.146c3.223-1.069 5.851-2.996 7.886-5.781s3.052-5.92 3.052-9.406c-0.001-2.902-0.716-5.579-2.146-8.030z"></path>
</symbol>
<symbol id="icon-burger" viewBox="0 0 52 32">
<path fill="#57595d" style="fill: var(--color1, #57595d)" d="M0 0h51.692v5.333h-51.692v-5.333zM0 13.333h51.692v5.333l-51.692-0.667v-4.667zM0 26.667h51.692v5.333h-51.692v-5.333z"></path>
</symbol>
<symbol id="icon-menu-close" viewBox="0 0 32 32">
<path d="M31.439 3.166 28.273 0 15.72 12.553 3.167 0 .001 3.166l12.553 12.553L.001 28.272l3.166 3.166L15.72 18.885l12.553 12.553 3.166-3.166-12.553-12.553L31.439 3.166z"/>
</symbol>
<symbol id="close-icon" viewBox="0 0 18 18">
<path d="M15 4.108 13.892 3 9.5 7.392 5.108 3 4 4.108 8.392 8.5 4 12.892 5.108 14 9.5 9.608 13.892 14 15 12.892 10.608 8.5 15 4.108Z"/>
</symbol>
<symbol id="icon-email-form" viewBox="0 0 32 32">
<path d="M26.667 5.333H5.334A2.663 2.663 0 0 0 2.681 8l-.013 16c0 1.467 1.2 2.667 2.667 2.667h21.333c1.467 0 2.667-1.2 2.667-2.667V8c0-1.467-1.2-2.667-2.667-2.667zM26.133 11l-9.427 5.893a1.346 1.346 0 0 1-1.413 0L5.866 11a1.132 1.132 0 1 1 1.2-1.92l8.933 5.587 8.933-5.587a1.132 1.132 0 1 1 1.2 1.92z"/>
</symbol>
<symbol id="icon-phone-form" viewBox="0 0 32 32">
<path d="m24.882 19.773-3.268-.373a2.561 2.561 0 0 0-2.11.733L17.137 22.5a19.357 19.357 0 0 1-8.478-8.478l2.38-2.38a2.561 2.561 0 0 0 .733-2.11l-.373-3.242a2.575 2.575 0 0 0-2.56-2.277H6.613c-1.454 0-2.663 1.209-2.573 2.663.682 10.987 9.469 19.761 20.443 20.443 1.454.09 2.663-1.119 2.663-2.573V22.32a2.549 2.549 0 0 0-2.264-2.547z"/>
</symbol>
<symbol id="icon-person-form" viewBox="0 0 32 32">
<path d="M16 16c2.947 0 5.333-2.387 5.333-5.333S18.946 5.334 16 5.334c-2.947 0-5.333 2.387-5.333 5.333S13.054 16 16 16zm0 2.667c-3.56 0-10.667 1.787-10.667 5.333v1.333c0 .733.6 1.333 1.333 1.333h18.667c.733 0 1.333-.6 1.333-1.333V24c0-3.547-7.107-5.333-10.667-5.333z"/>
</symbol>
<symbol id="icon-trello" viewBox="0 0 28 32">
<path d="M24.519 2h-21.012c-1.938 0-3.506 1.569-3.506 3.5-0.006 0 0-0.25 0 21 0 1.931 1.569 3.5 3.5 3.5h21.012c1.925-0.012 3.481-1.575 3.481-3.5v-21c0.006-1.925-1.55-3.487-3.475-3.5zM12.313 23.206c-0.012 0.919-0.756 1.663-1.681 1.663h-5.169c-0.925 0.006-1.681-0.738-1.688-1.663v-15.887c0-0.925 0.75-1.681 1.681-1.681h5.181c0.925 0 1.681 0.75 1.681 1.681v15.887zM24.381 16.206c0 0.925-0.75 1.681-1.681 1.681h-5.063c-0.925 0-1.681-0.75-1.681-1.681v-8.881c0-0.925 0.75-1.681 1.675-1.681h5.069c0.925 0 1.681 0.75 1.681 1.681v8.881z"></path>
</symbol>
<symbol id="icon-slack" viewBox="0 0 130 32">
<path d="M41.343 25.079l1.614-3.652c1.744 1.268 4.061 1.927 6.352 1.927 1.692 0 2.76-0.634 2.76-1.598-0.026-2.688-10.127-0.583-10.206-7.328-0.026-3.423 3.098-6.061 7.524-6.061 2.63 0 5.259 0.634 7.133 2.079l-1.51 3.728c-1.718-1.065-3.853-1.826-5.884-1.826-1.38 0-2.291 0.634-2.291 1.445 0.026 2.637 10.206 1.192 10.31 7.633 0 3.499-3.046 5.959-7.42 5.959-3.202 0-6.144-0.735-8.383-2.308zM103.279 20.109l4.452 2.409c-1.666 2.916-4.842 4.869-8.513 4.869-5.389 0-9.763-4.26-9.763-9.509s4.374-9.509 9.763-9.509c3.645 0 6.847 1.978 8.513 4.869l-4.452 2.409c-0.807-1.369-2.317-2.308-4.061-2.308-2.578 0-4.66 2.029-4.66 4.539s2.083 4.539 4.66 4.539c1.744 0 3.254-0.938 4.061-2.308zM59.385 0.482h5.571v26.55h-5.571v-26.55zM109.918 0.482h5.572v15.595l6.301-7.329h6.821l-7.784 8.825 8.409 9.459h-7.134l-6.613-7.962v7.962h-5.572v-26.55zM81.514 20.16v-4.488c-0.807-1.319-2.473-2.333-4.348-2.333-2.577 0-4.66 2.029-4.66 4.539s2.083 4.539 4.66 4.539c1.874 0 3.541-0.964 4.348-2.257zM81.514 8.749h5.571v18.258h-5.571v-2.156c-0.911 1.496-3.176 2.536-5.545 2.536-4.894 0-8.748-4.26-8.748-9.535s3.853-9.484 8.748-9.484c2.369 0 4.634 1.040 5.545 2.536v-2.155z"></path>
<path d="M6.899 20.134c0 1.851-1.536 3.347-3.437 3.347s-3.437-1.496-3.437-3.347c0-1.851 1.536-3.347 3.437-3.347h3.437v3.347zM8.617 20.134c0-1.851 1.536-3.347 3.437-3.347s3.437 1.496 3.437 3.347v8.368c0 1.851-1.536 3.347-3.437 3.347s-3.437-1.496-3.437-3.347v-8.368z"></path>
<path d="M12.054 6.695c-1.901 0-3.437-1.496-3.437-3.347s1.536-3.347 3.437-3.347c1.901 0 3.437 1.496 3.437 3.347v3.347h-3.437zM12.054 8.394c1.901 0 3.437 1.496 3.437 3.347s-1.536 3.347-3.437 3.347h-8.617c-1.901 0-3.437-1.496-3.437-3.347s1.536-3.347 3.437-3.347h8.617z"></path>
<path d="M25.826 11.741c0-1.851 1.536-3.347 3.437-3.347s3.437 1.496 3.437 3.347c0 1.851-1.536 3.347-3.437 3.347h-3.437v-3.347zM24.108 11.741c0 1.851-1.536 3.347-3.437 3.347s-3.436-1.496-3.436-3.347v-8.394c0-1.851 1.536-3.347 3.436-3.347s3.437 1.496 3.437 3.347v8.394z"></path>
<path d="M20.671 25.155c1.901 0 3.437 1.496 3.437 3.347s-1.536 3.347-3.437 3.347c-1.9 0-3.436-1.496-3.436-3.347v-3.347h3.436zM20.671 23.482c-1.9 0-3.436-1.496-3.436-3.347s1.536-3.347 3.436-3.347h8.617c1.9 0 3.437 1.496 3.437 3.347s-1.536 3.347-3.437 3.347h-8.617z"></path>
</symbol>
<symbol id="icon-sass" viewBox="0 0 40 32">
<path d="M18.865 23.683c-0.019 0.038-0.038 0.067 0 0zM34.436 18.245c-0.001 0-0.002 0-0.003 0-1.319 0-2.566 0.312-3.67 0.865l0.047-0.021c-0.369-0.744-0.75-1.394-0.813-1.881-0.075-0.569-0.156-0.906-0.069-1.581s0.481-1.631 0.475-1.7-0.087-0.412-0.894-0.419-1.5 0.156-1.581 0.369c-0.127 0.333-0.242 0.733-0.323 1.145l-0.008 0.049c-0.144 0.731-1.612 3.344-2.443 4.706-0.275-0.531-0.506-1-0.556-1.375-0.075-0.569-0.156-0.906-0.069-1.581s0.481-1.631 0.475-1.7-0.087-0.412-0.893-0.419-1.5 0.156-1.581 0.369-0.169 0.713-0.331 1.194-2.118 4.831-2.63 5.962c-0.262 0.575-0.488 1.038-0.65 1.35-0.025 0.050-0.044 0.081-0.056 0.106 0.019-0.031 0.031-0.063 0.031-0.050-0.137 0.269-0.219 0.419-0.219 0.419v0.006c-0.106 0.2-0.225 0.381-0.281 0.381-0.038 0-0.119-0.525 0.019-1.244 0.294-1.512 0.988-3.863 0.981-3.944-0.006-0.044 0.131-0.45-0.456-0.669-0.569-0.206-0.775 0.137-0.825 0.137s-0.087 0.125-0.087 0.125 0.631-2.65-1.212-2.65c-1.15 0-2.75 1.262-3.536 2.406-0.494 0.269-1.563 0.85-2.688 1.469-0.431 0.238-0.875 0.481-1.294 0.712-0.031-0.031-0.056-0.063-0.088-0.094-2.237-2.387-6.367-4.075-6.192-7.281 0.063-1.169 0.469-4.238 7.942-7.963 6.125-3.050 11.022-2.212 11.865-0.35 1.212 2.656-2.618 7.6-8.979 8.313-2.424 0.269-3.699-0.669-4.018-1.019-0.331-0.369-0.381-0.387-0.506-0.319-0.206 0.113-0.075 0.438 0 0.631 0.188 0.494 0.969 1.369 2.299 1.806 1.169 0.381 4.011 0.594 7.448-0.738 3.861-1.488 6.867-5.631 5.986-9.1-0.898-3.525-6.742-4.681-12.269-2.719-3.293 1.169-6.854 3.006-9.416 5.4-3.043 2.85-3.53 5.331-3.33 6.369 0.712 3.681 5.786 6.081 7.816 7.856-0.1 0.056-0.194 0.106-0.281 0.156-1.018 0.506-4.886 2.531-5.854 4.669-1.094 2.425 0.181 4.162 1.018 4.4 2.612 0.725 5.286-0.581 6.723-2.725s1.262-4.944 0.6-6.219c-0.006-0.019-0.019-0.031-0.025-0.050 0.262-0.156 0.531-0.313 0.8-0.469 0.518-0.306 1.024-0.587 1.468-0.831-0.25 0.675-0.431 1.488-0.525 2.663-0.113 1.375 0.456 3.156 1.194 3.856 0.325 0.306 0.718 0.313 0.962 0.313 0.863 0 1.25-0.712 1.681-1.563 0.531-1.038 1-2.244 1-2.244s-0.587 3.262 1.019 3.262c0.587 0 1.174-0.756 1.438-1.144v0.006s0.012-0.025 0.044-0.075c0.063-0.094 0.094-0.15 0.094-0.15v-0.019c0.238-0.406 0.756-1.337 1.537-2.875 1.012-1.988 1.981-4.469 1.981-4.469 0.109 0.631 0.244 1.174 0.412 1.702l-0.025-0.089c0.175 0.594 0.544 1.244 0.837 1.875-0.238 0.325-0.381 0.512-0.381 0.512 0 0.005 0.003 0.009 0.006 0.012v0c-0.188 0.25-0.4 0.519-0.619 0.781-0.799 0.95-1.75 2.038-1.875 2.35-0.15 0.369-0.113 0.644 0.175 0.856 0.212 0.163 0.587 0.188 0.981 0.156 0.719-0.050 1.225-0.225 1.469-0.337 0.482-0.175 0.899-0.399 1.277-0.673l-0.015 0.010c0.781-0.575 1.256-1.4 1.212-2.488-0.025-0.6-0.219-1.2-0.456-1.762 0.069-0.1 0.144-0.206 0.212-0.313 1.237-1.806 2.193-3.789 2.193-3.789 0.109 0.631 0.244 1.174 0.412 1.702l-0.025-0.089c0.15 0.506 0.443 1.063 0.712 1.606-1.162 0.944-1.881 2.038-2.131 2.756-0.462 1.331-0.1 1.931 0.581 2.069 0.306 0.063 0.744-0.081 1.069-0.219 0.515-0.174 0.962-0.409 1.363-0.703l-0.014 0.010c0.781-0.575 1.537-1.381 1.487-2.475-0.019-0.494-0.156-0.988-0.337-1.462 0.981-0.413 2.256-0.637 3.881-0.45 3.48 0.406 4.161 2.581 4.030 3.488s-0.862 1.413-1.106 1.563-0.319 0.206-0.3 0.319c0.031 0.163 0.144 0.156 0.35 0.119 0.288-0.050 1.824-0.738 1.893-2.419 0.1-2.125-1.943-4.462-5.563-4.444zM7.612 27.289c-1.149 1.256-2.762 1.731-3.455 1.331-0.744-0.433-0.45-2.281 0.968-3.62 0.862-0.813 1.974-1.563 2.712-2.025 0.169-0.1 0.413-0.25 0.712-0.431 0.050-0.031 0.075-0.044 0.075-0.044 0.056-0.038 0.119-0.069 0.181-0.106 0.518 1.9 0.019 3.575-1.194 4.894zM16.009 21.576c-0.4 0.981-1.243 3.481-1.756 3.35-0.438-0.113-0.706-2.019-0.088-3.894 0.313-0.944 0.975-2.069 1.369-2.506 0.631-0.706 1.324-0.931 1.487-0.65 0.219 0.369-0.762 3.087-1.012 3.7zM22.947 24.889c-0.169 0.087-0.325 0.144-0.4 0.1-0.056-0.031 0.069-0.15 0.069-0.15s0.869-0.931 1.212-1.356c0.2-0.25 0.431-0.544 0.681-0.869 0 0.031 0.006 0.063 0.006 0.1-0.008 1.119-1.082 1.875-1.57 2.175zM28.296 23.67c-0.125-0.087-0.106-0.381 0.313-1.294 0.163-0.356 0.537-0.956 1.188-1.531 0.070 0.201 0.113 0.432 0.119 0.672l0 0.003c-0.006 1.406-1.012 1.931-1.618 2.15z"></path>
</symbol>
<symbol id="icon-node" viewBox="0 0 40 32">
<path d="M19.769 28.25c-0.131 0-0.262-0.038-0.381-0.1l-1.2-0.712c-0.181-0.1-0.094-0.137-0.031-0.156 0.238-0.081 0.288-0.1 0.544-0.25 0.025-0.012 0.063-0.006 0.087 0.006l0.925 0.55c0.031 0.019 0.081 0.019 0.113 0l3.613-2.087c0.031-0.019 0.056-0.056 0.056-0.1v-4.169c0-0.044-0.019-0.081-0.056-0.1l-3.613-2.081c-0.031-0.019-0.075-0.019-0.113 0l-3.613 2.081c-0.038 0.019-0.056 0.063-0.056 0.1v4.169c0 0.038 0.025 0.075 0.056 0.094l0.988 0.569c0.538 0.269 0.869-0.050 0.869-0.363v-4.119c0-0.056 0.044-0.106 0.106-0.106h0.456c0.056 0 0.106 0.044 0.106 0.106v4.119c0 0.719-0.387 1.125-1.069 1.125-0.206 0-0.375 0-0.831-0.225l-0.95-0.544c-0.231-0.137-0.381-0.387-0.381-0.656v-4.169c0-0.269 0.144-0.525 0.381-0.656l3.613-2.087c0.231-0.131 0.531-0.131 0.756 0l3.613 2.087c0.231 0.137 0.381 0.387 0.381 0.656v4.169c0 0.269-0.144 0.525-0.381 0.656l-3.613 2.087c-0.106 0.069-0.238 0.106-0.375 0.106zM22.688 24.137c0-0.781-0.525-0.988-1.637-1.137-1.125-0.15-1.238-0.225-1.238-0.488 0-0.219 0.094-0.506 0.925-0.506 0.744 0 1.019 0.163 1.131 0.663 0.012 0.050 0.050 0.081 0.1 0.081h0.469c0.031 0 0.056-0.012 0.075-0.031 0.019-0.025 0.031-0.050 0.025-0.081-0.075-0.863-0.644-1.262-1.8-1.262-1.031 0-1.644 0.438-1.644 1.163 0 0.794 0.613 1.006 1.6 1.106 1.181 0.119 1.275 0.288 1.275 0.519 0 0.406-0.325 0.575-1.087 0.575-0.956 0-1.169-0.238-1.238-0.712-0.006-0.050-0.050-0.087-0.106-0.087h-0.469c-0.056 0-0.106 0.044-0.106 0.106 0 0.606 0.331 1.331 1.913 1.331 1.156 0 1.813-0.45 1.813-1.238zM26.094 21.006c0 0.381-0.313 0.694-0.694 0.694s-0.694-0.313-0.694-0.694c0-0.394 0.325-0.694 0.694-0.694 0.375-0.006 0.694 0.3 0.694 0.694zM25.981 21.006c0-0.325-0.262-0.581-0.587-0.581-0.319 0-0.581 0.256-0.581 0.581s0.262 0.587 0.581 0.587c0.325-0.006 0.587-0.269 0.587-0.587zM25.7 21.394h-0.163c-0.006-0.038-0.031-0.238-0.031-0.244-0.012-0.044-0.025-0.069-0.081-0.069h-0.137v0.313h-0.15v-0.781h0.269c0.094 0 0.275 0 0.275 0.206 0 0.144-0.094 0.175-0.15 0.194 0.106 0.006 0.113 0.075 0.131 0.175 0.006 0.063 0.019 0.169 0.038 0.206zM25.525 20.844c0-0.106-0.075-0.106-0.113-0.106h-0.125v0.219h0.119c0.1 0 0.119-0.069 0.119-0.113zM8.581 11.938c0-0.169-0.088-0.319-0.231-0.4l-3.831-2.206c-0.063-0.037-0.138-0.056-0.213-0.063h-0.037c-0.075 0-0.144 0.025-0.213 0.063l-3.825 2.206c-0.144 0.081-0.231 0.238-0.231 0.4l0.006 5.937c0 0.081 0.044 0.156 0.113 0.2s0.156 0.044 0.231 0l2.275-1.306c0.144-0.087 0.231-0.238 0.231-0.4v-2.775c0-0.162 0.087-0.319 0.231-0.4l0.969-0.556c0.075-0.044 0.15-0.063 0.231-0.063s0.162 0.019 0.231 0.063l0.969 0.556c0.144 0.081 0.231 0.238 0.231 0.4v2.775c0 0.163 0.088 0.319 0.231 0.4l2.275 1.306c0.069 0.044 0.162 0.044 0.231 0 0.069-0.038 0.113-0.119 0.113-0.2l0.012-5.938zM29.531 5.456v11.025c0 0.163-0.087 0.319-0.231 0.4l-3.831 2.212c-0.144 0.081-0.319 0.081-0.462 0l-3.831-2.212c-0.144-0.081-0.231-0.238-0.231-0.4v-4.425c0-0.162 0.087-0.319 0.231-0.4l3.831-2.213c0.144-0.081 0.319-0.081 0.462 0l0.956 0.55c0.106 0.063 0.244-0.019 0.244-0.137v-5.875c0-0.175 0.188-0.288 0.344-0.2l2.281 1.275c0.144 0.075 0.238 0.231 0.238 0.4zM26.656 13.512c0-0.044-0.025-0.081-0.056-0.1l-1.313-0.762c-0.038-0.019-0.081-0.019-0.119 0l-1.313 0.762c-0.038 0.019-0.056 0.056-0.056 0.1v1.519c0 0.044 0.025 0.081 0.056 0.1l1.313 0.756c0.038 0.019 0.081 0.019 0.113 0l1.313-0.756c0.038-0.019 0.056-0.056 0.056-0.1v-1.519zM39.769 13.469c0.144-0.081 0.231-0.238 0.231-0.4v-1.069c0-0.162-0.087-0.319-0.231-0.4l-3.806-2.213c-0.144-0.081-0.319-0.081-0.462 0l-3.831 2.213c-0.144 0.081-0.231 0.238-0.231 0.4v4.425c0 0.169 0.087 0.319 0.231 0.4l3.806 2.169c0.138 0.081 0.313 0.081 0.456 0l2.3-1.281c0.156-0.087 0.156-0.313 0-0.4l-3.856-2.213c-0.075-0.044-0.119-0.119-0.119-0.2v-1.387c0-0.081 0.044-0.156 0.119-0.2l1.2-0.694c0.069-0.044 0.163-0.044 0.231 0l1.2 0.694c0.069 0.044 0.119 0.119 0.119 0.2v1.088c0 0.175 0.194 0.287 0.35 0.2l2.294-1.331zM34.938 13.688c-0.025 0.019-0.044 0.044-0.044 0.075v0.85c0 0.031 0.019 0.063 0.044 0.075l0.737 0.425c0.025 0.019 0.063 0.019 0.087 0l0.737-0.425c0.025-0.019 0.044-0.044 0.044-0.075v-0.85c0-0.031-0.019-0.063-0.044-0.075l-0.737-0.425c-0.025-0.019-0.063-0.019-0.087 0l-0.737 0.425zM19.050 16.406v-4.4c0-0.162-0.1-0.319-0.244-0.4l-3.819-2.2c-0.131-0.075-0.313-0.088-0.463 0l-3.819 2.2c-0.144 0.081-0.244 0.231-0.244 0.4v4.4c0 0.175 0.119 0.325 0.25 0.4l3.825 2.2c0.15 0.087 0.325 0.081 0.463 0l3.812-2.2c0.113-0.063 0.194-0.169 0.225-0.294 0.006-0.031 0.012-0.069 0.012-0.106zM14.406 8.6l-0.050 0.031h0.069l-0.019-0.031zM19.169 16.738l-0.025-0.044v0.056l0.025-0.012z"></path>
</symbol>
<symbol id="icon-react" viewBox="0 0 32 32">
<path d="M26.137 11.075c-0.337-0.113-0.675-0.219-1.012-0.319 0.056-0.231 0.106-0.463 0.156-0.694 0.769-3.725 0.262-6.719-1.444-7.706-1.644-0.944-4.325 0.038-7.038 2.4-0.269 0.231-0.531 0.475-0.781 0.719-0.169-0.162-0.344-0.325-0.519-0.481-2.844-2.525-5.694-3.587-7.4-2.594-1.638 0.95-2.125 3.769-1.438 7.294 0.069 0.35 0.144 0.694 0.231 1.044-0.4 0.113-0.794 0.238-1.163 0.369-3.337 1.156-5.731 2.981-5.731 4.869 0 1.95 2.55 3.906 6.019 5.094 0.281 0.094 0.563 0.188 0.85 0.269-0.094 0.375-0.175 0.744-0.25 1.125-0.656 3.469-0.144 6.219 1.494 7.162 1.688 0.975 4.525-0.025 7.287-2.444 0.219-0.194 0.438-0.394 0.656-0.606 0.275 0.269 0.563 0.525 0.85 0.775 2.675 2.3 5.319 3.231 6.95 2.288 1.688-0.975 2.238-3.931 1.525-7.531-0.056-0.275-0.119-0.556-0.188-0.844 0.2-0.056 0.394-0.119 0.587-0.181 3.606-1.194 6.219-3.125 6.219-5.106 0-1.894-2.462-3.731-5.863-4.9zM17.681 5.769c2.325-2.025 4.494-2.819 5.481-2.25 1.056 0.606 1.462 3.056 0.8 6.275-0.044 0.213-0.087 0.419-0.144 0.625-1.387-0.313-2.794-0.537-4.206-0.662-0.813-1.162-1.7-2.275-2.663-3.319 0.244-0.231 0.481-0.45 0.731-0.669zM10.45 19.219c0.319 0.544 0.644 1.087 0.988 1.619-0.975-0.106-1.944-0.262-2.9-0.469 0.275-0.9 0.619-1.831 1.019-2.781 0.287 0.55 0.581 1.094 0.894 1.631zM8.556 11.7c0.9-0.2 1.856-0.363 2.85-0.488-0.331 0.519-0.656 1.050-0.963 1.588-0.306 0.531-0.606 1.075-0.887 1.625-0.394-0.931-0.725-1.844-1-2.725zM10.269 16.006c0.412-0.863 0.863-1.706 1.338-2.537s0.988-1.637 1.525-2.431c0.938-0.069 1.894-0.106 2.869-0.106s1.938 0.037 2.869 0.106c0.531 0.787 1.038 1.594 1.519 2.419s0.931 1.669 1.356 2.525c-0.419 0.862-0.869 1.713-1.35 2.55-0.475 0.831-0.981 1.637-1.512 2.438-0.931 0.069-1.9 0.1-2.881 0.1s-1.931-0.031-2.85-0.087c-0.544-0.794-1.056-1.606-1.537-2.438s-0.925-1.675-1.344-2.538zM21.556 19.206c0.319-0.55 0.619-1.106 0.913-1.669 0.4 0.906 0.75 1.825 1.056 2.769-0.969 0.219-1.95 0.387-2.938 0.5 0.337-0.525 0.656-1.063 0.969-1.6zM22.456 14.425c-0.294-0.55-0.594-1.1-0.906-1.637-0.306-0.531-0.625-1.056-0.956-1.575 1.006 0.125 1.969 0.294 2.869 0.5-0.288 0.925-0.625 1.825-1.006 2.713zM16.012 7.394c0.656 0.712 1.275 1.462 1.85 2.237-1.238-0.056-2.481-0.056-3.719 0 0.613-0.806 1.244-1.556 1.869-2.237zM8.762 3.563c1.050-0.612 3.381 0.263 5.838 2.438 0.156 0.138 0.313 0.287 0.475 0.438-0.969 1.044-1.863 2.156-2.681 3.319-1.412 0.125-2.813 0.344-4.2 0.65-0.081-0.319-0.15-0.644-0.219-0.969-0.588-3.025-0.2-5.306 0.787-5.875zM7.231 20.038c-0.263-0.075-0.519-0.156-0.775-0.244-1.331-0.419-2.844-1.081-3.938-1.95-0.631-0.438-1.056-1.113-1.175-1.869 0-1.144 1.975-2.606 4.825-3.6 0.356-0.125 0.719-0.238 1.081-0.344 0.425 1.356 0.938 2.688 1.531 3.975-0.6 1.306-1.119 2.656-1.55 4.031zM14.519 26.163c-1.031 0.944-2.225 1.694-3.525 2.206-0.694 0.331-1.494 0.363-2.206 0.081-0.994-0.575-1.406-2.781-0.844-5.75 0.069-0.35 0.144-0.7 0.231-1.044 1.4 0.3 2.813 0.506 4.244 0.613 0.825 1.169 1.731 2.288 2.7 3.337-0.2 0.194-0.4 0.381-0.6 0.556zM16.050 24.644c-0.637-0.688-1.275-1.45-1.894-2.269 0.6 0.025 1.219 0.038 1.844 0.038 0.644 0 1.275-0.012 1.9-0.044-0.575 0.794-1.194 1.55-1.85 2.275zM24.219 26.519c-0.056 0.762-0.431 1.475-1.031 1.956-0.994 0.575-3.113-0.175-5.4-2.137-0.262-0.225-0.525-0.469-0.794-0.719 0.956-1.056 1.837-2.175 2.637-3.35 1.431-0.119 2.856-0.337 4.262-0.656 0.063 0.256 0.119 0.512 0.169 0.762 0.306 1.35 0.356 2.756 0.156 4.144zM25.356 19.8c-0.175 0.056-0.35 0.113-0.531 0.163-0.438-1.363-0.975-2.694-1.594-3.988 0.6-1.275 1.106-2.588 1.531-3.931 0.325 0.094 0.637 0.194 0.938 0.294 2.913 1 4.956 2.487 4.956 3.625 0 1.225-2.181 2.806-5.3 3.838zM16 18.863c1.581 0 2.863-1.281 2.863-2.863s-1.281-2.863-2.863-2.863c-1.581 0-2.863 1.281-2.863 2.863s1.281 2.863 2.863 2.863z"></path>
</symbol>
<symbol id="icon-js" viewBox="0 0 28 32">
<path d="M0 2v28h28v-28h-28zM15.238 23.837c0 2.725-1.6 3.969-3.931 3.969-2.106 0-3.325-1.087-3.95-2.406l2.144-1.294c0.412 0.731 0.787 1.35 1.694 1.35 0.863 0 1.412-0.337 1.412-1.656v-8.944h2.631v8.981zM21.462 27.806c-2.444 0-4.025-1.163-4.794-2.688l2.144-1.238c0.563 0.919 1.3 1.6 2.594 1.6 1.087 0 1.788-0.544 1.788-1.3 0-0.9-0.712-1.219-1.919-1.75l-0.656-0.281c-1.9-0.806-3.156-1.825-3.156-3.969 0-1.975 1.506-3.475 3.85-3.475 1.675 0 2.875 0.581 3.738 2.106l-2.050 1.313c-0.45-0.806-0.938-1.125-1.694-1.125-0.769 0-1.256 0.488-1.256 1.125 0 0.788 0.488 1.106 1.619 1.6l0.656 0.281c2.238 0.956 3.494 1.938 3.494 4.137 0 2.363-1.863 3.663-4.356 3.663z"></path>
</symbol>
<symbol id="icon-html-five2" viewBox="0 0 32 32">
<path d="M1.892 0l2.567 28.801 11.524 3.199 11.554-3.204 2.572-28.796h-28.216zM25.336 26.963l-9.288 2.574v0.015l-0.024-0.007-0.024 0.007v-0.015l-9.288-2.574-2.195-24.609h23.015l-2.195 24.609zM20.336 16.569l-0.408 4.58-3.944 1.065-3.933-1.060-0.252-2.82h-3.547l0.495 5.547 7.252 2.006 7.229-2.006 0.97-10.844h-12.874l-0.322-3.617h13.517l0.316-3.532h-17.694l0.953 10.681z"></path>
</symbol>
<symbol id="icon-css3" viewBox="0 0 32 32">
<path d="M4.762 1.516l-1.074 5.373h21.867l-0.684 3.47h-21.881l-1.059 5.372h21.865l-1.219 6.127-8.813 2.919-7.638-2.919 0.523-2.658h-5.372l-1.278 6.448 12.632 4.834 14.563-4.834 4.805-24.133z"></path>
</symbol>
<symbol id="icon-git" viewBox="0 0 32 32">
<path d="M31.397 14.575l-13.972-13.971c-0.804-0.805-2.109-0.805-2.915 0l-3.246 3.246 2.443 2.443c0.392-0.187 0.83-0.293 1.293-0.293 1.657 0 3 1.343 3 3 0 0.463-0.105 0.902-0.293 1.293l3.999 3.999c0.392-0.187 0.83-0.293 1.293-0.293 1.657 0 3 1.343 3 3s-1.343 3-3 3-3-1.343-3-3c0-0.463 0.105-0.902 0.293-1.293l-3.999-3.999c-0.095 0.046-0.193 0.086-0.293 0.121v8.343c1.165 0.412 2 1.522 2 2.829 0 1.657-1.343 3-3 3s-3-1.343-3-3c0-1.306 0.835-2.417 2-2.829v-8.343c-1.165-0.412-2-1.522-2-2.829 0-0.463 0.105-0.902 0.293-1.293l-2.443-2.443-9.247 9.246c-0.805 0.806-0.805 2.11 0 2.915l13.973 13.971c0.804 0.805 2.109 0.805 2.915 0l13.906-13.906c0.805-0.805 0.805-2.111-0-2.915z"></path>
</symbol>
<symbol id="icon-circle" viewBox="0 0 32 32">
<circle cx="16" cy="16" r="16" stroke-linecap="round" fill="none"/>
</symbol>
<symbol id="icon-chart" viewBox="0 0 31 32">
<path d="M22.309 0.426c5.158 0 8.624 3.622 8.624 9.012v12.561c0 5.39-3.466 9.012-8.624 9.012h-13.329c-5.158 0-8.624-3.622-8.624-9.012v-12.561c0-5.39 3.466-9.012 8.624-9.012h13.329zM22.309 2.56h-13.329c-3.942 0-6.491 2.699-6.491 6.878v12.561c0 4.179 2.549 6.878 6.491 6.878h13.329c3.944 0 6.491-2.699 6.491-6.878v-12.561c0-4.179-2.547-6.878-6.491-6.878zM9.061 12.095c0.589 0 1.067 0.478 1.067 1.067v9.759c0 0.589-0.478 1.067-1.067 1.067s-1.067-0.478-1.067-1.067v-9.759c0-0.589 0.478-1.067 1.067-1.067zM15.699 7.423c0.589 0 1.067 0.478 1.067 1.067v14.429c0 0.589-0.478 1.067-1.067 1.067s-1.067-0.478-1.067-1.067v-14.429c0-0.589 0.478-1.067 1.067-1.067zM22.227 17.251c0.589 0 1.067 0.478 1.067 1.067v4.601c0 0.589-0.478 1.067-1.067 1.067s-1.067-0.478-1.067-1.067v-4.601c0-0.589 0.478-1.067 1.067-1.067z"></path>
</symbol>
<symbol id="icon-category" viewBox="0 0 32 32">
<path d="M7.506 18.255c6.43 0 6.716 2.181 6.716 6.718 0 2.273 0 3.89-0.955 5.074-1.098 1.364-3.097 1.644-5.762 1.644s-4.663-0.28-5.762-1.644c-0.954-1.184-0.954-2.799-0.954-5.034l1.185-0.040h-1.185c0-4.536 0.286-6.718 6.716-6.718zM24.889 18.255c6.43 0 6.716 2.181 6.716 6.718 0 2.273 0 3.89-0.954 5.074-1.098 1.364-3.097 1.644-5.762 1.644s-4.663-0.28-5.762-1.644c-0.954-1.184-0.954-2.799-0.954-5.034l1.185-0.040h-1.185c0-4.536 0.286-6.718 6.716-6.718zM7.832 20.627l-0.326-0.001c-4.123 0-4.334 0.296-4.345 3.757l0.001 1.348c0.007 1.377 0.060 2.371 0.427 2.829 0.419 0.518 1.662 0.759 3.917 0.759s3.499-0.242 3.917-0.76c0.428-0.533 0.428-1.797 0.428-3.549 0-3.952 0-4.365-4.020-4.384zM25.215 20.627l-0.326-0.001c-4.123 0-4.334 0.296-4.345 3.757l0.001 1.348c0.008 1.377 0.060 2.371 0.427 2.829 0.419 0.518 1.662 0.759 3.918 0.759s3.499-0.242 3.917-0.76c0.428-0.533 0.428-1.797 0.428-3.549 0-3.952 0-4.365-4.020-4.384zM7.506 0.869c6.43 0 6.716 2.181 6.716 6.718 0 2.273 0 3.89-0.955 5.074-1.098 1.364-3.097 1.644-5.762 1.644s-4.663-0.28-5.762-1.644c-0.954-1.184-0.954-2.799-0.954-5.034l1.185-0.040h-1.185c0-4.536 0.286-6.718 6.716-6.718zM24.889 0.869c6.43 0 6.716 2.181 6.716 6.718 0 2.273 0 3.89-0.954 5.074-1.098 1.364-3.097 1.644-5.762 1.644s-4.663-0.28-5.762-1.644c-0.954-1.184-0.954-2.799-0.954-5.034l1.185-0.040h-1.185c0-4.536 0.286-6.718 6.716-6.718zM7.832 3.24l-0.326-0.001c-4.123 0-4.334 0.296-4.345 3.757l0.001 1.348c0.007 1.377 0.060 2.371 0.427 2.829 0.419 0.518 1.662 0.759 3.917 0.759s3.499-0.242 3.917-0.76c0.428-0.533 0.428-1.797 0.428-3.548 0-3.952 0-4.365-4.020-4.384zM25.215 3.24l-0.326-0.001c-4.123 0-4.334 0.296-4.345 3.757l0.001 1.348c0.008 1.377 0.060 2.371 0.427 2.829 0.419 0.518 1.662 0.759 3.918 0.759s3.499-0.242 3.917-0.76c0.428-0.533 0.428-1.797 0.428-3.548 0-3.952 0-4.365-4.020-4.384z"></path>
</symbol>
<symbol id="icon-logo" viewBox="0 0 58 32">
<path d="M28.003 0.832c-0.551 0.152-0.873 0.34-1.274 0.737-0.444 0.441-0.723 0.997-0.823 1.611-0.1 0.65-0.1 24.776 0 25.426 0.179 1.098 0.909 1.95 1.968 2.29 0.451 0.144 8.029 0.13 8.509-0.014 0.945-0.289 1.682-1.112 1.896-2.116 0.114-0.542 0.114-25.202 0-25.744-0.186-0.874-0.737-1.582-1.546-1.986l-0.551-0.274-3.9-0.014c-3.213-0.014-3.972 0-4.279 0.087zM34.422 15.856v10.582h-4.652v-20.261l-0.501-0.39c-0.279-0.209-0.522-0.412-0.544-0.448s1.152-0.065 2.827-0.065h2.87v10.582z"></path>
<path d="M39.51 0.846c0.057 0.072 0.222 0.282 0.365 0.462l0.272 0.325v29.355h3.936l0.014-11.001 0.021-11.001 2.254 8.581c1.238 4.724 2.269 8.617 2.29 8.653s1.073-3.857 2.34-8.653l2.304-8.719v11.066l0.007 11.073h3.936v-30.265l-2.948 0.014-2.941 0.022-1.209 4.587c-0.658 2.521-1.267 4.811-1.338 5.092l-0.129 0.506-0.079-0.289c-0.043-0.159-0.63-2.405-1.302-4.984-0.673-2.586-1.238-4.753-1.26-4.825-0.036-0.116-0.258-0.123-3.335-0.123-3.127 0-3.292 0.007-3.199 0.123z"></path>
<path d="M4.251 2.125c-0.122 0.094-0.136 0.209-0.15 1.286-0.014 0.65-0.050 2.853-0.093 4.897-0.086 4.334-0.057 5.078 0.336 8.032 0.021 0.173 0.007 0.274-0.043 0.274-0.157 0-0.565 0.448-0.708 0.78-0.258 0.6-2.877 11.507-2.877 11.969 0 0.325 0.315 0.679 0.623 0.693 0.508 0.029 8.015-0.022 8.122-0.051 0.15-0.043 0.222-0.354 0.122-0.549-0.079-0.144-0.107-0.152-1.274-0.101-2.934 0.116-6.219 0.188-6.462 0.152-0.351-0.065-0.487-0.202-0.487-0.506 0-0.13 0.165-0.932 0.358-1.784 0.2-0.845 0.751-3.214 1.224-5.259s0.909-3.893 0.966-4.103c0.107-0.354 0.401-0.809 0.53-0.809 0.036 0 0.079 0.137 0.107 0.303 0.229 1.502 1.632 8.271 1.753 8.509 0.1 0.195 0.272 0.231 0.694 0.144 0.623-0.13 0.658-0.224 0.522-1.242-0.057-0.419-1.989-20.875-2.097-22.175-0.014-0.188-0.072-0.39-0.122-0.455-0.114-0.144-0.852-0.152-1.045-0.007zM5.646 11.378c0.272 2.615 0.508 5.186 0.508 5.504 0 0.34-0.193 0.311-0.243-0.036-0.021-0.144-0.157-1.632-0.293-3.301s-0.279-3.315-0.329-3.662c-0.072-0.592-0.043-0.867 0.079-0.73 0.029 0.029 0.157 1.033 0.279 2.225z"></path>
<path d="M16.030 28.54c0 0.332-0.029 0.65-0.064 0.708-0.050 0.079-0.315 0.101-1.238 0.108l-1.166 0.007-0.043 0.65h6.018v-0.311c0-0.383-0.129-0.65-0.465-0.939-0.565-0.506-1.217-0.73-2.269-0.787l-0.773-0.043v0.607z"></path>
<path d="M15.1 28.164c-0.623 0.202-1.288 0.621-1.288 0.809 0 0.036 0.415 0.065 0.923 0.065h0.923l0.029-0.419c0.043-0.657 0.043-0.665-0.587-0.455z"></path>
</symbol>
<symbol id="icon-activity" viewBox="0 0 32 32">
<path d="M19.71 2.048c0.609 0 1.103 0.494 1.103 1.104s-0.494 1.104-1.103 1.104h-10.693c-3.69 0-6.075 2.537-6.075 6.466v11.893c0 3.981 2.328 6.453 6.075 6.453h12.659c3.69 0 6.075-2.533 6.075-6.453v-10.358c0-0.609 0.494-1.104 1.103-1.104s1.103 0.494 1.103 1.104v10.358c0 5.18-3.328 8.66-8.282 8.66h-12.659c-4.954 0-8.282-3.48-8.282-8.66v-11.893c0-5.187 3.328-8.674 8.282-8.674h10.693zM22.823 12.099c0.483 0.374 0.571 1.067 0.197 1.548l-4.311 5.563c-0.18 0.233-0.444 0.384-0.736 0.419-0.294 0.040-0.586-0.046-0.818-0.227l-4.146-3.258-3.724 4.84c-0.218 0.282-0.544 0.431-0.875 0.431-0.235 0-0.472-0.075-0.672-0.228-0.483-0.372-0.574-1.065-0.202-1.548l4.404-5.724c0.18-0.234 0.446-0.386 0.737-0.422 0.297-0.038 0.588 0.044 0.82 0.228l4.149 3.26 3.63-4.684c0.374-0.484 1.065-0.574 1.548-0.197zM27.17 0.809c2.169 0 3.931 1.763 3.931 3.932s-1.763 3.934-3.931 3.934c-2.167 0-3.931-1.764-3.931-3.934s1.764-3.932 3.931-3.932zM27.17 3.016c-0.951 0-1.724 0.773-1.724 1.725 0 0.951 0.774 1.726 1.724 1.726s1.724-0.776 1.724-1.726c0-0.952-0.774-1.725-1.724-1.725z"></path>
</symbol>
</defs>
</svg>
